<svg width="693" height="363" viewBox="0 0 693 363" fill="none" xmlns="http://www.w3.org/2000/svg">
<g clip-path="url(#clip0)">
<path d="M300.49 263.13C300.49 278.65 288.91 290.6 273.26 290.6H227.43V204.36H263.28C278.07 204.36 288.78 214.36 288.78 227.65C288.74 231.374 287.629 235.009 285.58 238.12C290.14 240.496 293.949 244.094 296.582 248.51C299.215 252.927 300.568 257.988 300.49 263.13V263.13ZM244.43 220.26V234.79H269.19C270.844 233.108 271.776 230.848 271.79 228.49C271.79 223.69 268.59 220.24 263.29 220.24L244.43 220.26ZM283.48 262.26C283.48 255.26 279.41 249.82 271.16 249.82H244.44V274.71H271.05C279.42 274.71 283.49 269.16 283.49 262.26H283.48Z" fill="white"/>
<path d="M310.25 245.76H329.74V261.04H310.25V245.76Z" fill="#F2545F"/>
<path d="M408.34 204.36V290.6H391.34V254.38H362.75V290.6H345.75V204.36H362.75V238.12H391.33V204.36H408.34Z" fill="white"/>
<path d="M467.6 275.08H434.6L429.67 290.6H411.29L440.61 204.36H461.68L490.99 290.6H472.52L467.6 275.08ZM462.55 259.19L451.09 223.19L439.63 259.19H462.55Z" fill="white"/>
<path d="M490.05 247.49C490.05 222.24 508.78 202.65 534.89 202.65C555.34 202.65 572.71 216.08 576.78 235.17H558.92C555.84 225.44 546.23 219.17 534.92 219.17C518.04 219.17 506.92 230.87 506.92 247.5C506.92 264.13 518.01 275.71 534.92 275.71C546.25 275.71 555.86 269.55 558.92 259.82H576.78C572.71 278.82 555.47 292.34 534.89 292.34C508.78 292.33 490.05 272.61 490.05 247.49Z" fill="white"/>
<path d="M629.66 290.6L598.86 250.07V290.6H581.86V204.36H598.86V242.43L628.43 204.36H647.99L616.08 246.36L649.22 290.59L629.66 290.6Z" fill="white"/>
<path d="M649.25 263.99H666.25C666.25 271.87 671.18 275.69 680.79 275.69C689.41 275.69 693.48 271.99 693.48 267.07C693.48 260.91 686.58 258.2 678.33 255.37C666.01 250.94 650.86 246.01 650.86 227.77C650.86 211.26 664.54 202.64 678.86 202.64C693.86 202.64 707.94 211.39 707.94 230.48H690.99C690.99 222.96 686.55 219.15 678.79 219.15C671.79 219.15 667.7 222.72 667.7 227.77C667.7 234.05 673.61 236.89 681.62 239.84C694.06 244.28 710.32 248.84 710.32 267.07C710.32 283.58 696.77 292.33 680.75 292.33C663.79 292.33 649.25 283.49 649.25 263.99Z" fill="white"/>
<path d="M238.81 328.62H230.52L229.18 332.62H225.62L232.71 312.68H236.64L243.71 332.62H240.18L238.81 328.62ZM237.76 325.54L234.68 316.42L231.57 325.54H237.76Z" fill="white"/>
<path d="M284.5 319.1C284.497 319.948 284.326 320.788 283.997 321.57C283.667 322.352 283.186 323.06 282.58 323.655C281.975 324.249 281.257 324.718 280.469 325.033C279.681 325.347 278.838 325.503 277.99 325.49H273.99V332.61H270.71V312.69H277.99C278.841 312.675 279.685 312.83 280.475 313.146C281.265 313.461 281.984 313.931 282.59 314.528C283.196 315.125 283.678 315.837 284.005 316.622C284.333 317.407 284.501 318.249 284.5 319.1V319.1ZM281.22 319.1C281.235 318.67 281.163 318.242 281.01 317.841C280.857 317.439 280.624 317.072 280.327 316.762C280.03 316.452 279.673 316.204 279.279 316.034C278.884 315.863 278.46 315.773 278.03 315.77H273.99V322.44H277.99C278.424 322.44 278.854 322.353 279.253 322.184C279.653 322.015 280.015 321.767 280.317 321.456C280.619 321.144 280.856 320.775 281.013 320.37C281.169 319.965 281.243 319.533 281.23 319.1H281.22Z" fill="white"/>
<path d="M302.59 325.37H299.49V332.63H296.21V312.69H303.62C305.095 312.669 306.53 313.164 307.679 314.089C308.827 315.015 309.617 316.312 309.911 317.757C310.205 319.202 309.985 320.705 309.289 322.005C308.593 323.306 307.465 324.322 306.1 324.88L312.6 332.63H308.7L302.59 325.37ZM299.48 322.44H303.61C304.463 322.393 305.266 322.021 305.853 321.401C306.44 320.781 306.767 319.959 306.767 319.105C306.767 318.25 306.44 317.429 305.853 316.808C305.266 316.188 304.463 315.816 303.61 315.77H299.49L299.48 322.44Z" fill="white"/>
<path d="M321.17 322.66C321.17 320.615 321.776 318.615 322.913 316.915C324.049 315.215 325.664 313.889 327.553 313.107C329.442 312.324 331.521 312.119 333.527 312.518C335.533 312.917 337.375 313.902 338.821 315.348C340.268 316.794 341.252 318.637 341.651 320.642C342.05 322.648 341.846 324.727 341.063 326.617C340.28 328.506 338.955 330.121 337.255 331.257C335.554 332.393 333.555 333 331.51 333C330.15 333.009 328.801 332.748 327.542 332.231C326.283 331.715 325.14 330.954 324.178 329.992C323.216 329.03 322.454 327.886 321.938 326.628C321.422 325.369 321.161 324.02 321.17 322.66V322.66ZM338.58 322.66C338.564 321.265 338.136 319.906 337.35 318.754C336.563 317.602 335.454 316.708 334.161 316.185C332.867 315.662 331.448 315.534 330.082 315.815C328.716 316.097 327.464 316.777 326.483 317.769C325.502 318.76 324.837 320.02 324.571 321.389C324.304 322.759 324.449 324.176 324.986 325.463C325.524 326.751 326.43 327.85 327.591 328.623C328.751 329.397 330.115 329.81 331.51 329.81C332.447 329.818 333.376 329.638 334.242 329.28C335.109 328.923 335.894 328.395 336.553 327.728C337.211 327.061 337.729 326.269 338.075 325.399C338.422 324.528 338.59 323.596 338.57 322.66H338.58Z" fill="white"/>
<path d="M371.65 322.66C371.65 328.21 367.65 332.66 362.11 332.66H353.71V312.69H362.11C367.6 312.69 371.65 317.08 371.65 322.66ZM368.49 322.66C368.49 318.66 365.9 315.82 362.11 315.82H356.99V329.49H362.12C365.89 329.49 368.49 326.6 368.49 322.66Z" fill="white"/>
<path d="M383.04 326.6V312.69H386.32V326.39C386.32 328.58 387.66 329.81 390.17 329.81C392.68 329.81 394.02 328.59 394.02 326.39V312.69H397.3V326.59C397.3 330.75 394.14 333 390.18 333C386.22 333 383.04 330.76 383.04 326.6Z" fill="white"/>
<path d="M408.85 322.66C408.824 321.287 409.076 319.923 409.592 318.651C410.108 317.379 410.877 316.224 411.852 315.258C412.827 314.291 413.988 313.532 415.265 313.027C416.542 312.522 417.908 312.281 419.28 312.32C421.45 312.27 423.573 312.956 425.305 314.264C427.036 315.573 428.275 317.429 428.82 319.53H425.37C424.894 318.313 424.051 317.274 422.958 316.557C421.865 315.84 420.576 315.481 419.27 315.53C417.374 315.53 415.555 316.283 414.214 317.624C412.873 318.965 412.12 320.783 412.12 322.68C412.12 324.576 412.873 326.395 414.214 327.735C415.555 329.076 417.374 329.83 419.27 329.83C420.577 329.881 421.867 329.523 422.96 328.806C424.054 328.089 424.896 327.048 425.37 325.83H428.82C428.273 327.93 427.034 329.784 425.303 331.093C423.572 332.401 421.45 333.087 419.28 333.04C417.904 333.078 416.535 332.836 415.255 332.329C413.976 331.821 412.813 331.059 411.837 330.088C410.862 329.117 410.094 327.958 409.58 326.681C409.067 325.404 408.818 324.036 408.85 322.66Z" fill="white"/>
<path d="M451.5 315.83H446.5V332.64H443.22V315.83H438.15V312.69H451.54L451.5 315.83Z" fill="white"/>
<path d="M492.87 312.69V332.63H489.59V323.94H482.04V332.63H478.76V312.69H482.04V320.81H489.59V312.69H492.87Z" fill="white"/>
<path d="M517.06 328.62H508.77L507.43 332.62H503.87L510.99 312.69H514.92L521.99 332.64H518.46L517.06 328.62ZM515.99 325.54L512.91 316.42L509.8 325.54H515.99Z" fill="white"/>
<path d="M531.07 322.66C531.044 321.287 531.296 319.923 531.812 318.651C532.328 317.379 533.097 316.224 534.072 315.258C535.047 314.291 536.208 313.532 537.485 313.027C538.762 312.522 540.128 312.281 541.5 312.32C543.67 312.27 545.793 312.956 547.525 314.264C549.256 315.573 550.495 317.429 551.04 319.53H547.59C547.114 318.313 546.271 317.274 545.178 316.557C544.085 315.84 542.796 315.481 541.49 315.53C539.594 315.53 537.775 316.283 536.434 317.624C535.093 318.965 534.34 320.783 534.34 322.68C534.34 324.576 535.093 326.395 536.434 327.735C537.775 329.076 539.594 329.83 541.49 329.83C542.797 329.881 544.087 329.523 545.18 328.806C546.274 328.089 547.116 327.048 547.59 325.83H551.04C550.493 327.93 549.254 329.784 547.523 331.093C545.792 332.401 543.67 333.087 541.5 333.04C540.124 333.078 538.755 332.836 537.475 332.329C536.196 331.821 535.033 331.059 534.057 330.088C533.082 329.117 532.314 327.958 531.8 326.681C531.287 325.404 531.038 324.036 531.07 322.66V322.66Z" fill="white"/>
<path d="M573.6 332.64L565.74 323.15V332.64H562.46V312.69H565.74V321.61L573.32 312.69H577.22L569.13 322.4L577.51 332.63L573.6 332.64Z" fill="white"/>
<path d="M599.84 328.62H591.55L590.21 332.62H586.65L593.74 312.68H597.67L604.74 332.62H601.21L599.84 328.62ZM598.79 325.54L595.71 316.42L592.6 325.54H598.79Z" fill="white"/>
<path d="M626.14 315.83H621.14V332.64H617.86V315.83H612.79V312.69H626.18L626.14 315.83Z" fill="white"/>
<path d="M651.52 312.69V332.63H648.24V323.94H640.69V332.63H637.41V312.69H640.69V320.81H648.24V312.69H651.52Z" fill="white"/>
<path d="M663.37 322.66C663.37 320.615 663.976 318.615 665.113 316.915C666.249 315.215 667.864 313.889 669.753 313.107C671.642 312.324 673.721 312.119 675.727 312.518C677.733 312.917 679.575 313.902 681.021 315.348C682.468 316.794 683.452 318.637 683.851 320.642C684.25 322.648 684.045 324.727 683.263 326.617C682.48 328.506 681.155 330.121 679.455 331.257C677.754 332.393 675.755 333 673.71 333C672.349 333.009 671.001 332.748 669.742 332.231C668.483 331.715 667.34 330.954 666.378 329.992C665.416 329.03 664.654 327.886 664.138 326.628C663.622 325.369 663.361 324.02 663.37 322.66V322.66ZM680.78 322.66C680.764 321.265 680.336 319.906 679.55 318.754C678.763 317.602 677.654 316.708 676.361 316.185C675.067 315.662 673.648 315.534 672.282 315.815C670.916 316.097 669.664 316.777 668.683 317.769C667.702 318.76 667.037 320.02 666.771 321.389C666.504 322.759 666.649 324.176 667.186 325.463C667.724 326.751 668.63 327.85 669.791 328.623C670.951 329.397 672.315 329.81 673.71 329.81C674.648 329.819 675.578 329.64 676.445 329.283C677.313 328.926 678.1 328.399 678.759 327.732C679.419 327.065 679.937 326.272 680.284 325.401C680.632 324.53 680.8 323.597 680.78 322.66Z" fill="white"/>
<path d="M104.61 345.49C102.84 342.87 90.24 328.29 85.61 321.16C85.1114 320.406 84.8662 319.512 84.91 318.61C85.47 313.71 86.17 310.68 86.81 305.79C87.66 299.31 88.5 292.79 89.35 286.36C89.93 281.96 90.55 277.56 91.14 273.16C91.86 267.85 92.55 262.53 93.27 257.21C94.51 248.21 95.77 239.14 97 230.1C97.41 227.1 97.73 224.1 98.1 221.02H110.9C111.49 225.14 112.09 229.22 112.64 233.3C113.307 238.306 113.973 243.306 114.64 248.3C115.5 254.9 116.31 261.51 117.19 268.1C117.79 272.62 118.51 277.1 119.11 281.65C119.98 288.19 120.77 294.74 121.63 301.27C122.21 305.67 122.87 310.06 123.48 314.46C123.9 316.65 123.9 316.65 124.27 318.84C124.307 319.374 124.174 319.906 123.89 320.36C116.62 330.12 112.4 335.88 104.61 345.49Z" fill="white"/>
<path d="M104.57 187.82C109.15 192.28 113.62 196.58 118.01 200.97C118.177 201.252 118.271 201.572 118.285 201.9C118.299 202.227 118.232 202.554 118.09 202.85C115.87 206.58 113.6 210.28 111.21 213.9C110.939 214.235 110.602 214.512 110.22 214.713C109.839 214.914 109.42 215.035 108.99 215.07C105.99 215.21 102.92 215.2 99.89 215.07C99.5149 215.034 99.1515 214.92 98.824 214.734C98.4964 214.548 98.2121 214.294 97.99 213.99C95.52 210.22 93.17 206.37 90.85 202.52C90.7361 202.302 90.6766 202.06 90.6766 201.815C90.6766 201.569 90.7361 201.327 90.85 201.11C95.35 196.72 99.86 192.37 104.57 187.82Z" fill="white"/>
<path d="M30.08 309.93V287.27C30.08 279.65 26.7 277.67 21 277.65C20.2044 277.65 19.4413 277.334 18.8787 276.771C18.3161 276.208 18 275.445 18 274.65V261.75C18 260.954 18.3161 260.191 18.8787 259.628C19.4413 259.066 20.2044 258.75 21 258.75C26.7 258.75 30.08 256.75 30.08 249.13V226.49C30.08 206.9 40.18 196.49 62.22 198.02V217.02C54.22 216.1 49.82 217.63 49.82 226.51V249.16C49.82 258.5 46.76 264.77 40.64 268.16C46.76 271.68 49.82 277.96 49.82 287.29V309.94C49.82 318.82 54.26 320.35 62.22 319.43V338.43C40.18 339.92 30.08 329.49 30.08 309.93Z" fill="#F2545F"/>
<path d="M148.39 319.42C156.2 320.34 160.79 318.81 160.79 309.93V287.27C160.79 277.93 163.7 271.66 169.79 268.14C163.67 264.77 160.79 258.5 160.79 249.14V226.49C160.79 217.61 156.2 216.08 148.39 217V198C170.28 196.47 180.53 206.88 180.53 226.47V249.12C180.53 256.56 183.65 258.63 189.08 258.74C189.99 258.766 190.854 259.146 191.487 259.8C192.12 260.454 192.473 261.329 192.47 262.24V274.12C192.473 275.03 192.12 275.905 191.487 276.559C190.854 277.213 189.99 277.594 189.08 277.62C183.65 277.73 180.53 279.8 180.53 287.24V309.89C180.53 329.48 170.28 339.89 148.39 338.36V319.42Z" fill="#F2545F"/>
<path d="M345.29 25.3796C345.424 25.0923 345.534 24.7946 345.62 24.4896C345.845 23.2611 346.354 22.1022 347.106 21.1057C347.859 20.1093 348.835 19.3028 349.955 18.751C351.075 18.1993 352.309 17.9174 353.558 17.9281C354.807 17.9388 356.036 18.2417 357.147 18.8125C358.257 19.3834 359.219 20.2064 359.955 21.2156C360.69 22.2248 361.179 23.3922 361.383 24.6244C361.586 25.8565 361.498 27.1192 361.126 28.3113C360.754 29.5035 360.108 30.5919 359.24 31.4896L358.58 32.2096C362.171 32.5921 365.681 33.5229 368.99 34.9696C369.27 33.6496 369.53 32.3796 369.81 31.1196C370.364 28.5226 371.116 25.9718 372.06 23.4896C372.845 21.2152 374.072 19.1183 375.67 17.3196C374.525 16.7511 373.52 15.9376 372.725 14.937C371.93 13.9364 371.365 12.7731 371.07 11.5296C370.62 9.70083 370.799 7.77363 371.58 6.05961C372.163 4.76555 373.058 3.63623 374.185 2.77264C375.311 1.90904 376.635 1.33808 378.036 1.11081C379.437 0.883546 380.872 1.00705 382.214 1.47029C383.556 1.93353 384.762 2.72206 385.725 3.76538C386.687 4.8087 387.376 6.07428 387.73 7.44896C388.084 8.82365 388.091 10.2646 387.752 11.6429C387.413 13.0213 386.737 14.2941 385.786 15.3475C384.834 16.401 383.637 17.2022 382.3 17.6796C382.3 17.7596 382.3 17.8596 382.37 17.9096C384.053 19.9442 385.403 22.2326 386.37 24.6896C388.038 28.7621 389.376 32.9624 390.37 37.2496C390.37 37.4196 390.47 37.5796 390.54 37.8296C390.794 37.7479 391.041 37.6477 391.28 37.5296L398.76 33.1096C400.84 31.8696 402.91 30.6096 405.01 29.3896C405.64 29.0196 406.34 28.7596 407.15 28.3896C403.78 27.0996 401.73 24.8196 401.28 21.2996C401.133 20.1787 401.227 19.0394 401.557 17.958C401.886 16.8767 402.443 15.8782 403.19 15.0296C403.924 14.1826 404.821 13.4916 405.827 12.9978C406.834 12.5039 407.929 12.2173 409.048 12.1548C410.167 12.0923 411.288 12.2552 412.343 12.634C413.398 13.0127 414.366 13.5995 415.19 14.3596C416.125 15.2768 416.835 16.398 417.264 17.6355C417.693 18.873 417.829 20.193 417.663 21.4921C417.496 22.7912 417.031 24.034 416.303 25.1231C415.576 26.2123 414.606 27.1181 413.47 27.7696C415.37 28.6596 416.02 30.2896 416.14 32.2396C416.207 34.6293 415.799 37.0086 414.94 39.2396C413.265 43.8379 410.905 48.1566 407.94 52.0496C404.305 57.0317 399.947 61.4436 395.01 65.1396C394.793 65.2802 394.62 65.4778 394.509 65.7108C394.398 65.9437 394.353 66.2029 394.38 66.4596C394.562 70.7488 394.452 75.0454 394.05 79.3196C393.827 82.6668 393.134 85.9659 391.99 89.1196C391.55 90.1842 391.011 91.2054 390.38 92.1696C389.554 93.5264 388.241 94.5171 386.71 94.9396L386.15 95.0796C385.622 95.1842 385.078 95.1842 384.55 95.0796C384.35 95.0796 384.17 95.0196 383.98 94.9696C382.035 94.4424 380.222 93.5123 378.66 92.2396C376.168 90.2789 373.907 88.0412 371.92 85.5696C366.572 79.0332 361.861 72.0013 357.85 64.5696C355.348 60.0357 353.318 55.2574 351.79 50.3096C350.679 47.0547 350.111 43.639 350.11 40.1996C350.038 37.9874 350.798 35.8285 352.24 34.1496C352.24 34.1496 352.24 34.0396 352.24 33.9796C352.24 33.9196 352.24 33.9296 352.24 33.9196L351.89 33.8396C350.308 33.5305 348.859 32.745 347.736 31.5885C346.614 30.432 345.872 28.9599 345.61 27.3696C345.537 27.1542 345.436 26.9492 345.31 26.7596L345.29 25.3796ZM368.36 39.0196C366.439 37.7719 364.338 36.8275 362.13 36.2196C361.302 36.0116 360.454 35.8942 359.6 35.8696C358.768 35.8249 357.948 36.0782 357.286 36.5841C356.624 37.09 356.165 37.8153 355.99 38.6296C355.719 39.7886 355.754 40.998 356.09 42.1396C356.762 44.9373 357.769 47.6436 359.09 50.1996C362.924 58.0092 367.392 65.491 372.45 72.5696C373.654 74.3413 375.031 75.9893 376.56 77.4896C377.291 78.2254 378.148 78.8248 379.09 79.2596C379.627 79.5239 380.236 79.6045 380.823 79.4888C381.41 79.3732 381.943 79.0678 382.34 78.6196C383.062 77.952 383.585 77.0969 383.85 76.1496C384.17 74.8596 384.51 73.5696 384.85 72.2796C384.872 72.0769 384.872 71.8723 384.85 71.6696C384.33 71.8496 383.85 72.0196 383.38 72.1696C381.515 72.8543 379.476 72.906 377.578 72.3168C375.681 71.7277 374.03 70.5303 372.88 68.9096C372.394 68.2748 371.952 67.6065 371.56 66.9096C370.385 64.751 369.552 62.4234 369.09 60.0096C368.588 57.4261 368.277 54.809 368.16 52.1796C367.857 48.4624 367.857 44.7268 368.16 41.0096C368.24 40.3396 368.3 39.6696 368.37 39.0196H368.36ZM393.73 55.8196C394.05 55.5896 394.34 55.3996 394.61 55.1896C399.883 51.0521 404.394 46.0268 407.94 40.3396C408.993 38.7323 409.84 36.9986 410.46 35.1796C410.621 34.6118 410.745 34.0338 410.83 33.4496C410.91 32.9996 410.62 32.7896 410.24 32.7296C410.006 32.6887 409.766 32.7059 409.54 32.7796C408.81 33.0046 408.101 33.2923 407.42 33.6396C405.76 34.6396 404.12 35.6396 402.51 36.6396C399.03 38.9296 395.6 41.2996 391.95 43.3196C391.95 43.3196 391.88 43.4096 391.84 43.4496L393.73 55.8196ZM373.73 37.0496C376.436 38.3343 379.312 39.2266 382.27 39.6996C383.518 39.875 384.789 39.7864 386 39.4396C386 39.0896 386 38.7696 385.93 38.4396C385.53 35.9896 385.18 33.5296 384.7 31.0996C384.236 28.6272 383.382 26.2442 382.17 24.0396C381.665 23.1064 381.032 22.2481 380.29 21.4896C378.61 19.8396 376.99 20.1196 376 22.2396C375.468 23.4228 375.066 24.66 374.8 25.9296C374.135 29.324 373.773 32.771 373.72 36.2296C373.71 36.4896 373.72 36.7596 373.72 37.0396L373.73 37.0496ZM373.79 42.4896C373.79 43.2196 373.79 43.8696 373.79 44.4896C373.86 45.4896 373.96 46.4296 374.08 47.3996C374.336 49.771 374.808 52.114 375.49 54.3996C375.908 55.8434 376.586 57.1989 377.49 58.3996C378.025 59.1117 378.721 59.6881 379.52 60.0824C380.319 60.4767 381.199 60.6778 382.09 60.6696C383.359 60.6319 384.615 60.4096 385.82 60.0096C386.022 59.9775 386.203 59.8695 386.328 59.7077C386.452 59.546 386.51 59.3427 386.49 59.1396C386.67 54.9696 386.77 50.8096 386.55 46.6396C386.55 46.3496 386.55 46.0596 386.48 45.7896C386.407 45.7823 386.333 45.7823 386.26 45.7896C386.144 45.7778 386.026 45.7778 385.91 45.7896C383.887 46.2704 381.767 46.1522 379.81 45.4496C377.995 44.818 376.266 43.9648 374.66 42.9096C374.38 42.8096 374.1 42.6596 373.78 42.4896H373.79Z" fill="white"/>
<path d="M332.99 111.49V105.06H334.35V111.49H332.99Z" fill="white"/>
<path d="M341.21 111.49H339.48L336.68 106.62C336.733 107.48 336.76 108.093 336.76 108.46V111.46H335.54V105.03H337.26L340.05 109.85C340.003 109.016 339.98 108.426 339.98 108.08V105.08H341.21V111.49Z" fill="white"/>
<path d="M343.74 111.49H342.4V105.06H346.09V106.18H343.75V107.84H345.93V108.95H343.75L343.74 111.49Z" fill="white"/>
<path d="M352.76 108.26C352.821 109.15 352.538 110.031 351.97 110.72C351.343 111.273 350.536 111.578 349.7 111.578C348.864 111.578 348.057 111.273 347.43 110.72C346.863 110.03 346.58 109.15 346.64 108.26C346.578 107.372 346.861 106.494 347.43 105.81C347.73 105.517 348.087 105.289 348.48 105.143C348.873 104.997 349.292 104.934 349.71 104.96C350.127 104.931 350.545 104.992 350.937 105.139C351.329 105.285 351.684 105.514 351.98 105.81C352.541 106.498 352.82 107.374 352.76 108.26V108.26ZM348.06 108.26C348.021 108.829 348.165 109.397 348.47 109.88C348.613 110.064 348.799 110.21 349.012 110.306C349.224 110.402 349.457 110.444 349.69 110.43C350.777 110.43 351.32 109.706 351.32 108.26C351.32 106.813 350.78 106.09 349.7 106.09C349.466 106.074 349.231 106.116 349.017 106.212C348.802 106.308 348.615 106.455 348.47 106.64C348.168 107.123 348.028 107.691 348.07 108.26H348.06Z" fill="white"/>
<path d="M358.32 106.09C358.089 106.08 357.859 106.128 357.652 106.229C357.444 106.33 357.264 106.482 357.13 106.67C356.823 107.148 356.676 107.712 356.71 108.28C356.71 109.713 357.25 110.43 358.33 110.43C358.892 110.407 359.446 110.292 359.97 110.09V111.23C359.408 111.456 358.806 111.569 358.2 111.56C357.801 111.586 357.401 111.523 357.029 111.376C356.658 111.229 356.323 111.002 356.05 110.71C355.514 110.014 355.251 109.146 355.31 108.27C355.298 107.662 355.425 107.061 355.68 106.51C355.891 106.033 356.239 105.629 356.68 105.35C357.167 105.074 357.72 104.936 358.28 104.95C358.933 104.956 359.575 105.11 360.16 105.4L359.72 106.51C359.482 106.397 359.238 106.297 358.99 106.21C358.774 106.135 358.548 106.094 358.32 106.09V106.09Z" fill="white"/>
<path d="M366.75 108.26C366.811 109.15 366.528 110.031 365.96 110.72C365.333 111.273 364.526 111.578 363.69 111.578C362.854 111.578 362.047 111.273 361.42 110.72C360.853 110.03 360.57 109.15 360.63 108.26C360.568 107.372 360.851 106.494 361.42 105.81C361.72 105.517 362.077 105.289 362.47 105.143C362.863 104.997 363.282 104.934 363.7 104.96C364.117 104.931 364.535 104.992 364.927 105.139C365.319 105.285 365.674 105.514 365.97 105.81C366.531 106.498 366.81 107.374 366.75 108.26V108.26ZM362.05 108.26C362.011 108.829 362.155 109.397 362.46 109.88C362.603 110.064 362.789 110.21 363.002 110.306C363.214 110.402 363.447 110.444 363.68 110.43C364.767 110.43 365.31 109.706 365.31 108.26C365.31 106.813 364.77 106.09 363.69 106.09C363.456 106.074 363.221 106.116 363.007 106.212C362.792 106.308 362.605 106.455 362.46 106.64C362.154 107.122 362.01 107.69 362.05 108.26V108.26Z" fill="white"/>
<path d="M370.38 111.49L368.83 106.49C368.883 107.516 368.91 108.2 368.91 108.54V111.54H367.69V105.11H369.55L371.07 110.03L372.69 105.11H374.55V111.49H373.28V108.49C373.28 108.35 373.28 108.18 373.28 107.99C373.28 107.8 373.28 107.3 373.34 106.49L371.68 111.49H370.38Z" fill="white"/>
<path d="M378.45 111.49L376.9 106.49C376.953 107.516 376.98 108.2 376.98 108.54V111.54H375.76V105.11H377.62L379.14 110.03L380.76 105.11H382.62V111.49H381.35V108.49C381.35 108.35 381.35 108.18 381.35 107.99C381.35 107.8 381.35 107.3 381.41 106.49L379.75 111.49H378.45Z" fill="white"/>
<path d="M388.99 105.05V109.21C388.999 109.648 388.888 110.08 388.67 110.46C388.453 110.82 388.132 111.106 387.75 111.28C387.301 111.482 386.812 111.581 386.32 111.57C385.618 111.613 384.927 111.384 384.39 110.93C384.157 110.706 383.975 110.435 383.855 110.135C383.736 109.835 383.683 109.512 383.7 109.19V105.05H385.06V108.99C385.029 109.377 385.135 109.763 385.36 110.08C385.491 110.208 385.648 110.305 385.821 110.366C385.994 110.426 386.178 110.448 386.36 110.43C386.542 110.45 386.727 110.429 386.9 110.369C387.073 110.308 387.23 110.209 387.36 110.08C387.587 109.76 387.693 109.37 387.66 108.98V105.05H388.99Z" fill="white"/>
<path d="M395.89 111.49H394.16L391.36 106.62C391.413 107.48 391.44 108.093 391.44 108.46V111.46H390.19V105.03H391.91L394.7 109.85C394.653 109.016 394.63 108.426 394.63 108.08V105.08H395.86L395.89 111.49Z" fill="white"/>
<path d="M397.09 111.49V105.06H398.45V111.49H397.09Z" fill="white"/>
<path d="M402.38 106.09C402.149 106.08 401.919 106.128 401.712 106.229C401.504 106.33 401.324 106.482 401.19 106.67C400.883 107.148 400.736 107.712 400.77 108.28C400.77 109.713 401.31 110.43 402.39 110.43C402.952 110.407 403.506 110.292 404.03 110.09V111.23C403.468 111.456 402.866 111.569 402.26 111.56C401.861 111.586 401.461 111.523 401.089 111.376C400.718 111.229 400.383 111.002 400.11 110.71C399.574 110.014 399.311 109.146 399.37 108.27C399.358 107.662 399.485 107.061 399.74 106.51C399.951 106.033 400.299 105.629 400.74 105.35C401.227 105.074 401.78 104.936 402.34 104.95C402.993 104.956 403.635 105.11 404.22 105.4L403.78 106.51C403.542 106.397 403.298 106.297 403.05 106.21C402.834 106.135 402.608 106.094 402.38 106.09V106.09Z" fill="white"/>
<path d="M408.9 111.49L408.43 109.96H406.09L405.62 111.49H404.15L406.42 105.03H408.09L410.37 111.49H408.9ZM408.11 108.82L407.38 106.47C407.327 106.29 407.287 106.146 407.26 106.04C407.16 106.413 406.883 107.343 406.43 108.83L408.11 108.82Z" fill="white"/>
<path d="M413.24 111.49H411.88V106.19H410.13V105.05H414.99V106.19H413.24V111.49Z" fill="white"/>
<path d="M415.55 111.49V105.06H416.91V111.49H415.55Z" fill="white"/>
<path d="M423.99 108.26C424.051 109.15 423.768 110.031 423.2 110.72C422.573 111.273 421.766 111.578 420.93 111.578C420.094 111.578 419.287 111.273 418.66 110.72C418.093 110.03 417.81 109.15 417.87 108.26C417.808 107.372 418.091 106.494 418.66 105.81C418.96 105.517 419.317 105.289 419.71 105.143C420.103 104.997 420.522 104.934 420.94 104.96C421.357 104.931 421.775 104.992 422.167 105.139C422.559 105.285 422.914 105.514 423.21 105.81C423.771 106.498 424.05 107.374 423.99 108.26V108.26ZM419.29 108.26C419.251 108.829 419.395 109.397 419.7 109.88C419.843 110.064 420.029 110.21 420.242 110.306C420.454 110.402 420.687 110.444 420.92 110.43C422.007 110.43 422.55 109.706 422.55 108.26C422.55 106.813 422.01 106.09 420.93 106.09C420.696 106.074 420.461 106.116 420.247 106.212C420.032 106.308 419.845 106.455 419.7 106.64C419.384 107.119 419.229 107.686 419.26 108.26H419.29Z" fill="white"/>
<path d="M430.57 111.49H428.84L426.04 106.62C426.093 107.48 426.12 108.093 426.12 108.46V111.46H424.9V105.03H426.62L429.41 109.85C429.363 109.016 429.34 108.426 429.34 108.08V105.08H430.57V111.49Z" fill="white"/>
<path d="M338.7 123.41V116.98H340.06V123.41H338.7Z" fill="white"/>
<path d="M346.99 123.41H345.26L342.46 118.54C342.513 119.4 342.54 120.013 342.54 120.38V123.38H341.32V116.95H342.99L345.78 121.77C345.733 120.936 345.71 120.346 345.71 120V117H346.99V123.41Z" fill="white"/>
<path d="M350.9 118.02C350.669 118.01 350.439 118.058 350.232 118.159C350.024 118.26 349.844 118.412 349.71 118.6C349.403 119.078 349.256 119.642 349.29 120.21C349.29 121.643 349.83 122.36 350.91 122.36C351.472 122.337 352.026 122.222 352.55 122.02V123.16C351.988 123.386 351.386 123.499 350.78 123.49C350.381 123.516 349.981 123.453 349.609 123.306C349.238 123.159 348.903 122.932 348.63 122.64C348.094 121.944 347.831 121.076 347.89 120.2C347.878 119.592 348.005 118.991 348.26 118.44C348.471 117.963 348.819 117.559 349.26 117.28C349.747 117.004 350.3 116.866 350.86 116.88C351.513 116.886 352.155 117.04 352.74 117.33L352.3 118.44C352.062 118.327 351.818 118.227 351.57 118.14C351.354 118.065 351.128 118.024 350.9 118.02V118.02Z" fill="white"/>
<path d="M358.72 116.98V121.14C358.729 121.578 358.618 122.01 358.4 122.39C358.183 122.75 357.862 123.035 357.48 123.21C357.031 123.412 356.542 123.511 356.05 123.5C355.348 123.543 354.657 123.314 354.12 122.86C353.887 122.636 353.705 122.365 353.585 122.065C353.466 121.765 353.413 121.442 353.43 121.12V116.98H354.79V120.92C354.758 121.307 354.865 121.693 355.09 122.01C355.221 122.138 355.378 122.235 355.551 122.296C355.724 122.356 355.908 122.378 356.09 122.36C356.272 122.38 356.457 122.359 356.63 122.299C356.803 122.238 356.96 122.139 357.09 122.01C357.317 121.69 357.423 121.3 357.39 120.91V116.98H358.72Z" fill="white"/>
<path d="M359.87 116.98H361.87C362.56 116.928 363.25 117.063 363.87 117.37C364.076 117.501 364.242 117.686 364.351 117.904C364.46 118.122 364.508 118.366 364.49 118.61C364.505 118.947 364.411 119.281 364.22 119.56C364.136 119.677 364.028 119.777 363.905 119.853C363.781 119.928 363.643 119.978 363.5 120V120C363.846 120.055 364.16 120.237 364.38 120.51C364.574 120.806 364.668 121.156 364.65 121.51C364.661 121.773 364.609 122.034 364.497 122.273C364.386 122.511 364.219 122.719 364.01 122.88C363.505 123.232 362.895 123.405 362.28 123.37H359.87V116.98ZM361.23 119.53H361.99C362.267 119.551 362.545 119.492 362.79 119.36C362.877 119.294 362.945 119.207 362.989 119.107C363.033 119.007 363.05 118.898 363.04 118.79C363.048 118.685 363.027 118.58 362.98 118.487C362.932 118.393 362.859 118.315 362.77 118.26C362.502 118.134 362.206 118.079 361.91 118.1H361.19L361.23 119.53ZM361.23 120.61V122.29H362.12C362.413 122.311 362.706 122.233 362.95 122.07C363.043 121.988 363.116 121.886 363.163 121.771C363.209 121.657 363.229 121.533 363.22 121.41C363.22 120.876 362.84 120.61 362.08 120.61H361.23Z" fill="white"/>
<path d="M369.44 123.41L368.97 121.88H366.62L366.15 123.41H364.69L366.96 116.95H368.63L370.91 123.41H369.44ZM368.65 120.74L367.92 118.39C367.867 118.21 367.827 118.066 367.8 117.96C367.7 118.333 367.423 119.263 366.97 120.75L368.65 120.74Z" fill="white"/>
<path d="M373.78 123.41H372.42V118.11H370.67V116.97H375.53V118.11H373.78V123.41Z" fill="white"/>
<path d="M376.09 123.41V116.98H377.45V123.41H376.09Z" fill="white"/>
<path d="M384.49 120.19C384.551 121.08 384.268 121.961 383.7 122.65C383.073 123.203 382.266 123.508 381.43 123.508C380.594 123.508 379.787 123.203 379.16 122.65C378.593 121.96 378.31 121.08 378.37 120.19C378.308 119.302 378.591 118.424 379.16 117.74C379.46 117.447 379.817 117.219 380.21 117.073C380.603 116.927 381.022 116.864 381.44 116.89C381.857 116.861 382.275 116.922 382.667 117.069C383.059 117.215 383.414 117.444 383.71 117.74C384.271 118.428 384.55 119.304 384.49 120.19V120.19ZM379.79 120.19C379.751 120.759 379.895 121.327 380.2 121.81C380.343 121.994 380.529 122.14 380.742 122.236C380.954 122.332 381.187 122.374 381.42 122.36C382.507 122.36 383.05 121.636 383.05 120.19C383.05 118.743 382.51 118.02 381.43 118.02C381.196 118.004 380.961 118.046 380.747 118.142C380.532 118.238 380.345 118.385 380.2 118.57C379.894 119.052 379.75 119.62 379.79 120.19V120.19Z" fill="white"/>
<path d="M391.1 123.41H389.37L386.57 118.54C386.623 119.4 386.65 120.013 386.65 120.38V123.38H385.43V116.95H387.15L389.94 121.77C389.893 120.936 389.87 120.346 389.87 120V117H391.1V123.41Z" fill="white"/>
<path d="M396.99 118.02C396.759 118.01 396.529 118.058 396.322 118.159C396.114 118.26 395.934 118.412 395.8 118.6C395.493 119.078 395.346 119.642 395.38 120.21C395.38 121.643 395.92 122.36 397 122.36C397.562 122.337 398.116 122.222 398.64 122.02V123.16C398.078 123.386 397.476 123.499 396.87 123.49C396.471 123.516 396.071 123.453 395.699 123.306C395.328 123.159 394.993 122.932 394.72 122.64C394.184 121.944 393.921 121.076 393.98 120.2C393.968 119.592 394.095 118.991 394.35 118.44C394.561 117.963 394.909 117.559 395.35 117.28C395.837 117.004 396.39 116.866 396.95 116.88C397.603 116.886 398.245 117.04 398.83 117.33L398.39 118.49C398.152 118.377 397.908 118.277 397.66 118.19C397.447 118.098 397.221 118.04 396.99 118.02Z" fill="white"/>
<path d="M403.24 123.41H399.54V116.98H403.24V118.1H400.9V119.49H403.08V120.61H400.9V122.27H403.24V123.41Z" fill="white"/>
<path d="M409.86 123.41H408.13L405.33 118.54C405.383 119.4 405.41 120.013 405.41 120.38V123.38H404.19V116.95H405.91L408.7 121.77C408.653 120.936 408.63 120.346 408.63 120V117H409.86V123.41Z" fill="white"/>
<path d="M413.54 123.41H412.18V118.11H410.43V116.97H415.29V118.11H413.54V123.41Z" fill="white"/>
<path d="M417.22 120.94V123.41H415.86V116.98H417.73C418.411 116.929 419.091 117.097 419.67 117.46C420.009 117.763 420.228 118.179 420.287 118.63C420.346 119.082 420.24 119.539 419.99 119.92C419.766 120.226 419.461 120.465 419.11 120.61C420.077 122.056 420.707 122.99 421 123.41H419.49L417.99 120.94H417.22ZM417.22 119.83H417.66C418.008 119.862 418.358 119.785 418.66 119.61C418.765 119.532 418.849 119.429 418.903 119.31C418.957 119.191 418.98 119.06 418.97 118.93C418.982 118.803 418.96 118.676 418.905 118.562C418.85 118.447 418.766 118.35 418.66 118.28C418.35 118.127 418.004 118.061 417.66 118.09H417.25L417.22 119.83Z" fill="white"/>
<path d="M425.08 123.41H421.38V116.98H425.08V118.1H422.74V119.49H424.92V120.61H422.74V122.27H425.08V123.41Z" fill="white"/>
<path d="M332.9 101.34V97.7996H333.65V101.34H332.9Z" fill="white"/>
<path d="M334.29 101.34V97.7996H335.04V101.34H334.29Z" fill="white"/>
<path d="M335.68 101.34V97.7996H336.43V101.34H335.68Z" fill="white"/>
<path d="M338.44 101.34H337.69V98.4196H336.69V97.7996H339.36V98.4296H338.36L338.44 101.34Z" fill="white"/>
<path d="M339.4 100.31V99.6996H340.7V100.31H339.4Z" fill="white"/>
<path d="M343.22 101.34L342.99 100.49H341.7L341.44 101.33H340.63L341.88 97.7696H342.8L344.05 101.33L343.22 101.34ZM342.78 99.8696L342.38 98.5696C342.38 98.4696 342.36 98.3896 342.32 98.3296C342.267 98.5363 342.113 99.0463 341.86 99.8596L342.78 99.8696Z" fill="white"/>
<path d="M344.99 165.19V152.04H346.77V153.49C347.092 152.949 347.556 152.506 348.111 152.208C348.666 151.91 349.291 151.769 349.92 151.8C352.74 151.8 354.25 153.97 354.25 156.72C354.25 159.47 352.62 161.72 349.86 161.72C349.262 161.748 348.666 161.622 348.13 161.354C347.595 161.086 347.136 160.685 346.8 160.19V165.19H344.99ZM349.59 153.45C347.9 153.45 346.79 154.86 346.79 156.74C346.79 158.62 347.91 160.07 349.59 160.07C351.27 160.07 352.37 158.68 352.37 156.74C352.37 154.8 351.29 153.49 349.56 153.49L349.59 153.45Z" fill="white"/>
<path d="M361.81 153.9C361.545 153.861 361.278 153.841 361.01 153.84C359.46 153.84 358.42 154.66 358.42 156.74V161.49H356.58V152.07H358.38V153.72C358.618 153.173 359.014 152.711 359.516 152.39C360.018 152.069 360.604 151.906 361.2 151.92C361.405 151.922 361.609 151.942 361.81 151.98V153.9Z" fill="white"/>
<path d="M371.88 158.78C371.602 159.675 371.037 160.453 370.273 160.995C369.508 161.537 368.587 161.813 367.65 161.78C366.324 161.811 365.04 161.315 364.079 160.4C363.119 159.485 362.562 158.226 362.53 156.9C362.498 155.574 362.994 154.289 363.91 153.329C364.825 152.369 366.084 151.811 367.41 151.78C370.31 151.78 371.94 153.78 371.94 156.72C371.954 156.916 371.954 157.113 371.94 157.31H364.85C364.842 157.686 364.91 158.06 365.049 158.409C365.189 158.758 365.397 159.076 365.663 159.343C365.928 159.61 366.244 159.821 366.592 159.963C366.94 160.105 367.314 160.175 367.69 160.17C368.282 160.206 368.868 160.037 369.349 159.69C369.83 159.344 370.177 158.842 370.33 158.27L371.88 158.78ZM370.02 155.78C370.027 155.446 369.963 155.114 369.833 154.806C369.703 154.499 369.51 154.222 369.265 153.994C369.02 153.767 368.731 153.593 368.414 153.486C368.098 153.378 367.763 153.339 367.43 153.37C366.772 153.358 366.136 153.604 365.657 154.054C365.177 154.504 364.891 155.123 364.86 155.78H370.02Z" fill="white"/>
<path d="M375.07 158.43C375.13 158.954 375.395 159.433 375.807 159.763C376.22 160.092 376.745 160.246 377.27 160.19C378.27 160.19 378.88 159.6 378.88 158.94C378.88 158.28 378.45 157.94 377.67 157.73L376.06 157.38C375.413 157.299 374.817 156.986 374.385 156.498C373.952 156.01 373.712 155.382 373.71 154.73C373.764 153.89 374.145 153.106 374.772 152.545C375.398 151.984 376.22 151.691 377.06 151.73C377.862 151.649 378.665 151.86 379.323 152.325C379.981 152.79 380.449 153.477 380.64 154.26L379.01 154.87C378.945 154.4 378.7 153.973 378.327 153.681C377.954 153.388 377.482 153.251 377.01 153.3C376.636 153.257 376.261 153.365 375.966 153.6C375.672 153.834 375.483 154.176 375.44 154.55C375.44 155.12 375.79 155.55 376.52 155.69L378.05 156.02C379.76 156.39 380.66 157.43 380.66 158.82C380.66 160.21 379.54 161.74 377.21 161.74C374.62 161.74 373.53 160.07 373.37 159L375.07 158.43Z" fill="white"/>
<path d="M391.26 158.78C390.982 159.675 390.417 160.453 389.653 160.995C388.888 161.537 387.967 161.813 387.03 161.78C385.704 161.811 384.42 161.315 383.459 160.4C382.499 159.485 381.942 158.226 381.91 156.9C381.878 155.574 382.374 154.289 383.29 153.329C384.205 152.369 385.464 151.811 386.79 151.78C389.69 151.78 391.32 153.78 391.32 156.72C391.334 156.916 391.334 157.113 391.32 157.31H384.23C384.222 157.686 384.29 158.06 384.429 158.409C384.569 158.758 384.777 159.076 385.043 159.343C385.308 159.61 385.624 159.821 385.972 159.963C386.32 160.105 386.694 160.175 387.07 160.17C387.662 160.206 388.248 160.037 388.729 159.69C389.21 159.344 389.557 158.842 389.71 158.27L391.26 158.78ZM389.4 155.78C389.407 155.446 389.343 155.114 389.213 154.806C389.083 154.499 388.89 154.222 388.645 153.994C388.4 153.767 388.111 153.593 387.794 153.486C387.478 153.378 387.143 153.339 386.81 153.37C386.152 153.358 385.516 153.604 385.037 154.054C384.557 154.504 384.271 155.123 384.24 155.78H389.4Z" fill="white"/>
<path d="M395.51 161.49H393.67V152.07H395.47V153.42C395.76 152.91 396.183 152.49 396.694 152.203C397.205 151.915 397.784 151.773 398.37 151.79C400.62 151.79 401.74 153.42 401.74 155.51V161.51H399.9V155.85C399.9 154.54 399.35 153.48 397.71 153.48C396.26 153.48 395.52 154.64 395.52 156.07L395.51 161.49Z" fill="white"/>
<path d="M407.15 152.04H409.15V153.71H407.15V158.61C407.15 159.47 407.5 159.9 408.46 159.9C408.702 159.896 408.943 159.87 409.18 159.82V161.39C408.775 161.515 408.354 161.576 407.93 161.57C407.574 161.596 407.216 161.544 406.883 161.418C406.549 161.292 406.246 161.094 405.997 160.839C405.747 160.584 405.556 160.277 405.438 159.94C405.319 159.604 405.276 159.245 405.31 158.89V153.72H403.51V152.05H403.99C404.185 152.07 404.383 152.047 404.568 151.981C404.753 151.915 404.922 151.809 405.061 151.67C405.199 151.531 405.306 151.363 405.371 151.178C405.437 150.993 405.46 150.795 405.44 150.6V149.07H407.12L407.15 152.04Z" fill="white"/>
<path d="M412.51 158.43C412.57 158.952 412.834 159.43 413.244 159.759C413.654 160.088 414.177 160.243 414.7 160.19C415.7 160.19 416.31 159.6 416.31 158.94C416.31 158.28 415.88 157.94 415.1 157.73L413.49 157.38C412.843 157.299 412.247 156.986 411.815 156.498C411.382 156.01 411.142 155.382 411.14 154.73C411.194 153.89 411.575 153.106 412.202 152.545C412.828 151.984 413.65 151.691 414.49 151.73C415.292 151.649 416.095 151.86 416.753 152.325C417.411 152.79 417.879 153.477 418.07 154.26L416.44 154.87C416.375 154.4 416.13 153.973 415.757 153.681C415.384 153.388 414.912 153.251 414.44 153.3C414.066 153.257 413.691 153.365 413.396 153.6C413.102 153.834 412.913 154.176 412.87 154.55C412.87 155.12 413.22 155.55 413.95 155.69L415.48 156.02C417.19 156.39 418.09 157.43 418.09 158.82C418.09 160.21 416.97 161.74 414.64 161.74C412.05 161.74 410.96 160.07 410.8 159L412.51 158.43Z" fill="white"/>
<path d="M368.1 361.23V350H369.68V361.23H368.1Z" fill="white"/>
<path d="M378.86 361.23V350H380.44V361.23H378.86Z" fill="white"/>
<path d="M389.63 361.23V350H391.21V361.23H389.63Z" fill="white"/>
<path d="M404.43 351.49V361.28H402.88V351.49H399.13V350.05H408.19V351.49H404.43Z" fill="white"/>
<path d="M432.99 358.09H427.99L426.8 361.23H425.14L429.61 350H431.4L435.87 361.23H434.19L432.99 358.09ZM428.57 356.65H432.44L430.49 351.65L428.57 356.65Z" fill="white"/>
<path d="M443.75 361.23V350H445.3V359.77H450.61V361.23H443.75Z" fill="white"/>
<path d="M458.76 361.23V350H460.31V359.77H465.62V361.23H458.76Z" fill="white"/>
<path d="M480.64 358.09H475.64L474.45 361.23H472.79L477.26 350H479.05L483.52 361.23H481.84L480.64 358.09ZM476.22 356.65H480.09L478.14 351.65L476.22 356.65Z" fill="white"/>
<path d="M498.74 361.23V356.23H492.99V361.23H491.44V350H492.99V354.8H498.72V350H500.27V361.23H498.74Z" fill="white"/>
<path d="M515.99 358.09H510.99L509.8 361.23H508.14L512.61 350H514.4L518.87 361.23H517.19L515.99 358.09ZM511.57 356.65H515.44L513.49 351.65L511.57 356.65Z" fill="white"/>
<path d="M530.49 350C532.63 350 533.88 351.27 533.88 353C533.894 353.529 533.738 354.049 533.436 354.485C533.134 354.92 532.701 355.247 532.2 355.42C532.791 355.578 533.311 355.932 533.674 356.424C534.038 356.917 534.223 357.518 534.2 358.13C534.2 359.9 532.79 361.19 530.73 361.19H526.8V350H530.49ZM530.32 354.91C530.572 354.941 530.829 354.918 531.071 354.842C531.314 354.766 531.538 354.639 531.727 354.47C531.917 354.3 532.068 354.092 532.17 353.859C532.272 353.626 532.323 353.374 532.32 353.12C532.32 352.06 531.54 351.36 530.26 351.36H528.39V354.91H530.32ZM530.54 359.91C531.79 359.91 532.65 359.21 532.65 358.12C532.659 357.862 532.612 357.605 532.513 357.367C532.413 357.128 532.263 356.915 532.073 356.74C531.883 356.565 531.657 356.433 531.412 356.354C531.166 356.275 530.906 356.249 530.65 356.28H528.43V359.91H530.54Z" fill="white"/>
<path d="M548.93 358.09H543.93L542.74 361.23H541.08L545.55 350H547.34L551.81 361.23H550.13L548.93 358.09ZM544.51 356.65H548.38L546.43 351.65L544.51 356.65Z" fill="white"/>
<path d="M559.75 361.23V350H563.68C566.53 350 569.02 351.95 569.02 355.64C569.075 356.369 568.976 357.102 568.729 357.791C568.482 358.479 568.092 359.108 567.585 359.635C567.078 360.163 566.466 360.578 565.788 360.852C565.109 361.127 564.381 361.256 563.65 361.23H559.75ZM563.6 359.85C565.67 359.85 567.42 358.46 567.42 355.64C567.42 352.82 565.71 351.38 563.63 351.38H561.3V359.85H563.6Z" fill="white"/>
</g>
<defs>
<clipPath id="clip0">
<rect width="692.36" height="362.74" fill="white"/>
</clipPath>
</defs>
</svg>
