<svg width="693" height="363" viewBox="0 0 693 363" fill="none" xmlns="http://www.w3.org/2000/svg">
<g clip-path="url(#clip0)">
<path d="M282.5 264.64C282.5 280.16 270.92 292.11 255.27 292.11H209.44V205.87H245.29C260.08 205.87 270.79 215.87 270.79 229.16C270.75 232.885 269.639 236.519 267.59 239.63C272.15 242.007 275.959 245.604 278.592 250.021C281.225 254.437 282.578 259.499 282.5 264.64V264.64ZM226.44 221.77V236.3H251.2C252.854 234.618 253.786 232.358 253.8 230C253.8 225.2 250.6 221.75 245.3 221.75L226.44 221.77ZM265.49 263.77C265.49 256.77 261.42 251.33 253.17 251.33H226.45V276.22H253.06C261.43 276.22 265.5 270.67 265.5 263.77H265.49Z" fill="white"/>
<path d="M292.26 247.27H311.75V262.55H292.26V247.27Z" fill="#F2545F"/>
<path d="M390.35 205.87V292.11H373.35V255.89H344.76V292.11H327.76V205.87H344.76V239.63H373.34V205.87H390.35Z" fill="white"/>
<path d="M449.61 276.59H416.61L411.68 292.11H393.3L422.62 205.87H443.69L473 292.11H454.53L449.61 276.59ZM444.56 260.7L433.1 224.7L421.64 260.7H444.56Z" fill="white"/>
<path d="M472.06 249C472.06 223.75 490.79 204.16 516.9 204.16C537.35 204.16 554.72 217.59 558.79 236.68H540.93C537.85 226.95 528.24 220.68 516.93 220.68C500.05 220.68 488.93 232.38 488.93 249.01C488.93 265.64 500.02 277.22 516.93 277.22C528.26 277.22 537.87 271.06 540.93 261.33H558.79C554.72 280.33 537.48 293.85 516.9 293.85C490.79 293.84 472.06 274.12 472.06 249Z" fill="white"/>
<path d="M611.67 292.11L580.87 251.58V292.11H563.87V205.87H580.87V243.94L610.44 205.87H630L598.09 247.87L631.23 292.1L611.67 292.11Z" fill="white"/>
<path d="M631.26 265.5H648.26C648.26 273.38 653.19 277.2 662.8 277.2C671.42 277.2 675.49 273.5 675.49 268.58C675.49 262.42 668.59 259.71 660.34 256.88C648.02 252.45 632.87 247.52 632.87 229.28C632.87 212.77 646.55 204.15 660.87 204.15C675.87 204.15 689.95 212.9 689.95 231.99H673C673 224.47 668.56 220.66 660.8 220.66C653.8 220.66 649.71 224.23 649.71 229.28C649.71 235.56 655.62 238.4 663.63 241.35C676.07 245.79 692.33 250.35 692.33 268.58C692.33 285.09 678.78 293.84 662.76 293.84C645.8 293.84 631.26 285 631.26 265.5Z" fill="white"/>
<path d="M220.82 330.13H212.53L211.19 334.13H207.63L214.72 314.19H218.65L225.72 334.13H222.19L220.82 330.13ZM219.77 327.05L216.69 317.93L213.58 327.05H219.77Z" fill="white"/>
<path d="M266.51 320.61C266.507 321.459 266.336 322.298 266.007 323.08C265.677 323.862 265.196 324.571 264.59 325.165C263.985 325.76 263.267 326.228 262.479 326.543C261.691 326.858 260.849 327.013 260 327H256V334.12H252.72V314.2H260C260.851 314.185 261.695 314.34 262.485 314.656C263.275 314.972 263.994 315.442 264.6 316.039C265.207 316.635 265.688 317.347 266.015 318.132C266.343 318.917 266.511 319.759 266.51 320.61V320.61ZM263.23 320.61C263.245 320.18 263.173 319.752 263.02 319.351C262.867 318.949 262.634 318.583 262.337 318.272C262.04 317.962 261.683 317.714 261.289 317.544C260.894 317.373 260.47 317.284 260.04 317.28H256V323.95H260C260.434 323.95 260.864 323.863 261.263 323.694C261.663 323.525 262.025 323.277 262.327 322.966C262.629 322.654 262.866 322.285 263.023 321.881C263.18 321.476 263.253 321.044 263.24 320.61H263.23Z" fill="white"/>
<path d="M284.6 326.88H281.5V334.14H278.22V314.2H285.63C287.105 314.18 288.54 314.675 289.689 315.6C290.837 316.525 291.627 317.822 291.921 319.267C292.215 320.713 291.995 322.215 291.299 323.516C290.603 324.816 289.475 325.833 288.11 326.39L294.61 334.14H290.71L284.6 326.88ZM281.49 323.95H285.62C286.473 323.903 287.276 323.532 287.863 322.911C288.45 322.291 288.777 321.469 288.777 320.615C288.777 319.761 288.45 318.939 287.863 318.319C287.276 317.698 286.473 317.327 285.62 317.28H281.5L281.49 323.95Z" fill="white"/>
<path d="M303.18 324.17C303.18 322.125 303.786 320.126 304.923 318.425C306.059 316.725 307.674 315.4 309.563 314.617C311.452 313.835 313.531 313.63 315.537 314.029C317.543 314.428 319.385 315.412 320.831 316.859C322.278 318.305 323.262 320.147 323.661 322.153C324.06 324.159 323.856 326.238 323.073 328.127C322.29 330.016 320.965 331.631 319.265 332.767C317.564 333.904 315.565 334.51 313.52 334.51C312.16 334.519 310.811 334.258 309.552 333.742C308.293 333.226 307.15 332.464 306.188 331.502C305.226 330.54 304.464 329.397 303.948 328.138C303.432 326.879 303.171 325.53 303.18 324.17V324.17ZM320.59 324.17C320.574 322.775 320.146 321.416 319.36 320.264C318.573 319.112 317.464 318.218 316.171 317.696C314.877 317.173 313.458 317.044 312.092 317.326C310.726 317.608 309.474 318.287 308.493 319.279C307.512 320.271 306.847 321.531 306.581 322.9C306.314 324.269 306.459 325.687 306.996 326.974C307.534 328.261 308.44 329.36 309.601 330.134C310.761 330.907 312.125 331.32 313.52 331.32C314.457 331.328 315.386 331.148 316.252 330.791C317.119 330.433 317.904 329.905 318.563 329.239C319.221 328.572 319.739 327.78 320.085 326.909C320.432 326.038 320.6 325.107 320.58 324.17H320.59Z" fill="white"/>
<path d="M353.66 324.17C353.66 329.72 349.66 334.17 344.12 334.17H335.72V314.2H344.12C349.61 314.2 353.66 318.59 353.66 324.17ZM350.5 324.17C350.5 320.17 347.91 317.33 344.12 317.33H339V331H344.13C347.9 331 350.5 328.11 350.5 324.17Z" fill="white"/>
<path d="M365.05 328.11V314.2H368.33V327.9C368.33 330.09 369.67 331.32 372.18 331.32C374.69 331.32 376.03 330.1 376.03 327.9V314.2H379.31V328.1C379.31 332.26 376.15 334.51 372.19 334.51C368.23 334.51 365.05 332.27 365.05 328.11Z" fill="white"/>
<path d="M390.86 324.17C390.834 322.797 391.086 321.434 391.602 320.161C392.118 318.889 392.887 317.735 393.862 316.768C394.837 315.801 395.998 315.043 397.275 314.538C398.552 314.033 399.918 313.792 401.29 313.83C403.46 313.781 405.583 314.466 407.315 315.775C409.046 317.084 410.285 318.939 410.83 321.04H407.38C406.904 319.823 406.061 318.784 404.968 318.067C403.875 317.351 402.586 316.992 401.28 317.04C399.384 317.04 397.565 317.793 396.224 319.134C394.883 320.475 394.13 322.294 394.13 324.19C394.13 326.086 394.883 327.905 396.224 329.246C397.565 330.587 399.384 331.34 401.28 331.34C402.587 331.391 403.877 331.034 404.97 330.316C406.064 329.599 406.906 328.559 407.38 327.34H410.83C410.283 329.44 409.044 331.294 407.313 332.603C405.582 333.911 403.46 334.597 401.29 334.55C399.914 334.588 398.545 334.346 397.265 333.839C395.986 333.332 394.823 332.569 393.847 331.598C392.872 330.627 392.104 329.468 391.59 328.191C391.077 326.914 390.828 325.546 390.86 324.17Z" fill="white"/>
<path d="M433.51 317.34H428.51V334.15H425.23V317.34H420.16V314.2H433.55L433.51 317.34Z" fill="white"/>
<path d="M474.88 314.2V334.14H471.6V325.45H464.05V334.14H460.77V314.2H464.05V322.32H471.6V314.2H474.88Z" fill="white"/>
<path d="M499.07 330.13H490.78L489.44 334.13H485.88L493 314.2H496.93L504 334.15H500.47L499.07 330.13ZM498 327.05L494.92 317.93L491.81 327.05H498Z" fill="white"/>
<path d="M513.08 324.17C513.054 322.797 513.306 321.434 513.822 320.161C514.338 318.889 515.107 317.735 516.082 316.768C517.057 315.801 518.218 315.043 519.495 314.538C520.772 314.033 522.138 313.792 523.51 313.83C525.68 313.781 527.803 314.466 529.535 315.775C531.266 317.084 532.505 318.939 533.05 321.04H529.6C529.124 319.823 528.281 318.784 527.188 318.067C526.095 317.351 524.806 316.992 523.5 317.04C521.604 317.04 519.785 317.793 518.444 319.134C517.103 320.475 516.35 322.294 516.35 324.19C516.35 326.086 517.103 327.905 518.444 329.246C519.785 330.587 521.604 331.34 523.5 331.34C524.807 331.391 526.097 331.034 527.19 330.316C528.284 329.599 529.126 328.559 529.6 327.34H533.05C532.503 329.44 531.264 331.294 529.533 332.603C527.802 333.911 525.68 334.597 523.51 334.55C522.134 334.588 520.765 334.346 519.485 333.839C518.206 333.332 517.043 332.569 516.067 331.598C515.092 330.627 514.324 329.468 513.81 328.191C513.297 326.914 513.048 325.546 513.08 324.17V324.17Z" fill="white"/>
<path d="M555.61 334.15L547.75 324.66V334.15H544.47V314.2H547.75V323.12L555.33 314.2H559.23L551.14 323.91L559.52 334.14L555.61 334.15Z" fill="white"/>
<path d="M581.85 330.13H573.56L572.22 334.13H568.66L575.75 314.19H579.68L586.75 334.13H583.22L581.85 330.13ZM580.8 327.05L577.72 317.93L574.61 327.05H580.8Z" fill="white"/>
<path d="M608.15 317.34H603.15V334.15H599.87V317.34H594.8V314.2H608.19L608.15 317.34Z" fill="white"/>
<path d="M633.53 314.2V334.14H630.25V325.45H622.7V334.14H619.42V314.2H622.7V322.32H630.25V314.2H633.53Z" fill="white"/>
<path d="M645.38 324.17C645.38 322.125 645.986 320.126 647.123 318.425C648.259 316.725 649.874 315.4 651.763 314.617C653.652 313.835 655.731 313.63 657.737 314.029C659.743 314.428 661.585 315.412 663.031 316.859C664.478 318.305 665.462 320.147 665.861 322.153C666.26 324.159 666.055 326.238 665.273 328.127C664.49 330.016 663.165 331.631 661.465 332.767C659.764 333.904 657.765 334.51 655.72 334.51C654.36 334.519 653.011 334.258 651.752 333.742C650.493 333.226 649.35 332.464 648.388 331.502C647.426 330.54 646.664 329.397 646.148 328.138C645.632 326.879 645.371 325.53 645.38 324.17V324.17ZM662.79 324.17C662.774 322.775 662.346 321.416 661.56 320.264C660.773 319.112 659.664 318.218 658.371 317.696C657.077 317.173 655.658 317.044 654.292 317.326C652.926 317.608 651.674 318.287 650.693 319.279C649.712 320.271 649.047 321.531 648.781 322.9C648.514 324.269 648.659 325.687 649.196 326.974C649.734 328.261 650.64 329.36 651.801 330.134C652.961 330.907 654.325 331.32 655.72 331.32C656.658 331.33 657.588 331.151 658.456 330.794C659.323 330.437 660.11 329.909 660.769 329.242C661.429 328.575 661.947 327.783 662.294 326.911C662.642 326.04 662.81 325.108 662.79 324.17Z" fill="white"/>
<path d="M692.16 314.2V334.14H689.6L681.2 320.61V334.14H677.92V314.2H680.48L688.88 327.73V314.2H692.16Z" fill="white"/>
<path d="M86.62 347C84.85 344.38 72.25 329.8 67.62 322.67C67.1215 321.916 66.8763 321.023 66.92 320.12C67.48 315.22 68.18 312.19 68.82 307.3C69.67 300.82 70.51 294.3 71.36 287.87C71.94 283.47 72.56 279.07 73.15 274.67C73.87 269.36 74.56 264.04 75.28 258.72C76.52 249.72 77.78 240.65 79.01 231.61C79.42 228.61 79.74 225.61 80.11 222.53H92.91C93.5 226.65 94.1 230.73 94.65 234.81C95.3167 239.817 95.9834 244.817 96.65 249.81C97.51 256.41 98.32 263.02 99.2 269.61C99.8 274.13 100.52 278.61 101.12 283.16C101.99 289.7 102.78 296.25 103.64 302.78C104.22 307.18 104.88 311.57 105.49 315.97C105.91 318.16 105.91 318.16 106.28 320.35C106.317 320.884 106.184 321.416 105.9 321.87C98.63 331.63 94.41 337.39 86.62 347Z" fill="white"/>
<path d="M86.58 189.33C91.16 193.79 95.63 198.09 100.02 202.48C100.187 202.763 100.281 203.082 100.295 203.41C100.309 203.738 100.242 204.064 100.1 204.36C97.88 208.09 95.61 211.79 93.22 215.41C92.9487 215.745 92.612 216.022 92.2303 216.223C91.8487 216.424 91.4301 216.546 91 216.58C88 216.72 84.93 216.71 81.9 216.58C81.5249 216.545 81.1615 216.43 80.834 216.244C80.5064 216.058 80.2222 215.804 80 215.5C77.53 211.73 75.18 207.88 72.86 204.03C72.7461 203.812 72.6866 203.571 72.6866 203.325C72.6866 203.079 72.7461 202.838 72.86 202.62C77.36 198.23 81.87 193.88 86.58 189.33Z" fill="white"/>
<path d="M12.09 311.44V288.78C12.09 281.16 8.71001 279.18 3.01001 279.16C2.21436 279.16 1.4513 278.844 0.888689 278.281C0.32608 277.719 0.0100098 276.956 0.0100098 276.16V263.26C0.0100098 262.464 0.32608 261.701 0.888689 261.139C1.4513 260.576 2.21436 260.26 3.01001 260.26C8.71001 260.26 12.09 258.26 12.09 250.64V228C12.09 208.41 22.19 198 44.23 199.53V218.53C36.23 217.61 31.83 219.14 31.83 228.02V250.67C31.83 260.01 28.77 266.28 22.65 269.67C28.77 273.19 31.83 279.47 31.83 288.8V311.45C31.83 320.33 36.27 321.86 44.23 320.94V339.94C22.19 341.43 12.09 331 12.09 311.44Z" fill="#F2545F"/>
<path d="M130.4 320.93C138.21 321.85 142.8 320.32 142.8 311.44V288.78C142.8 279.44 145.71 273.17 151.8 269.65C145.68 266.28 142.8 260.01 142.8 250.65V228C142.8 219.12 138.21 217.59 130.4 218.51V199.51C152.29 197.98 162.54 208.39 162.54 227.98V250.63C162.54 258.07 165.66 260.14 171.09 260.25C172 260.276 172.864 260.657 173.497 261.31C174.13 261.964 174.483 262.84 174.48 263.75V275.63C174.483 276.54 174.13 277.416 173.497 278.07C172.864 278.723 172 279.104 171.09 279.13C165.66 279.24 162.54 281.31 162.54 288.75V311.4C162.54 330.99 152.29 341.4 130.4 339.87V320.93Z" fill="#F2545F"/>
<path d="M327.3 26.89C327.434 26.6026 327.544 26.305 327.63 26C327.855 24.7715 328.364 23.6126 329.116 22.6161C329.869 21.6196 330.845 20.8132 331.965 20.2614C333.085 19.7097 334.319 19.4278 335.568 19.4385C336.817 19.4492 338.046 19.7521 339.157 20.3229C340.267 20.8938 341.229 21.7168 341.965 22.726C342.7 23.7352 343.189 24.9026 343.393 26.1348C343.596 27.3669 343.508 28.6296 343.136 29.8217C342.764 31.0139 342.118 32.1023 341.25 33L340.59 33.72C344.181 34.1024 347.691 35.0333 351 36.48C351.28 35.16 351.54 33.89 351.82 32.63C352.374 30.0329 353.126 27.4821 354.07 25C354.855 22.7256 356.082 20.6287 357.68 18.83C356.535 18.2615 355.53 17.448 354.735 16.4474C353.94 15.4468 353.375 14.2835 353.08 13.04C352.63 11.2112 352.809 9.28402 353.59 7.57C354.173 6.27594 355.068 5.14662 356.195 4.28303C357.322 3.41943 358.645 2.84847 360.046 2.6212C361.447 2.39394 362.883 2.51745 364.224 2.98068C365.566 3.44392 366.772 4.23246 367.735 5.27577C368.697 6.31909 369.386 7.58467 369.74 8.95936C370.094 10.334 370.101 11.775 369.762 13.1533C369.423 14.5317 368.747 15.8045 367.796 16.8579C366.844 17.9114 365.647 18.7126 364.31 19.19C364.31 19.27 364.31 19.37 364.38 19.42C366.063 21.4546 367.413 23.7429 368.38 26.2C370.048 30.2725 371.386 34.4728 372.38 38.76C372.38 38.93 372.48 39.09 372.55 39.34C372.804 39.2583 373.051 39.1581 373.29 39.04L380.77 34.62C382.85 33.38 384.92 32.12 387.02 30.9C387.65 30.53 388.35 30.27 389.16 29.9C385.79 28.61 383.74 26.33 383.29 22.81C383.143 21.6891 383.237 20.5498 383.567 19.4684C383.896 18.387 384.453 17.3886 385.2 16.54C385.934 15.6929 386.831 15.002 387.837 14.5082C388.844 14.0143 389.939 13.7276 391.058 13.6652C392.177 13.6027 393.298 13.7656 394.353 14.1444C395.408 14.5231 396.376 15.1099 397.2 15.87C398.135 16.7872 398.845 17.9084 399.274 19.1459C399.703 20.3834 399.839 21.7034 399.673 23.0025C399.506 24.3015 399.041 25.5444 398.313 26.6335C397.586 27.7226 396.616 28.6285 395.48 29.28C397.38 30.17 398.03 31.8 398.15 33.75C398.217 36.1397 397.809 38.5189 396.95 40.75C395.275 45.3483 392.915 49.667 389.95 53.56C386.315 58.5421 381.957 62.954 377.02 66.65C376.803 66.7906 376.63 66.9882 376.519 67.2212C376.408 67.4541 376.363 67.7133 376.39 67.97C376.572 72.2592 376.462 76.5558 376.06 80.83C375.837 84.1772 375.144 87.4763 374 90.63C373.56 91.6946 373.021 92.7157 372.39 93.68C371.564 95.0368 370.251 96.0275 368.72 96.45L368.16 96.59C367.632 96.6946 367.088 96.6946 366.56 96.59C366.36 96.59 366.18 96.53 365.99 96.48C364.045 95.9528 362.232 95.0227 360.67 93.75C358.178 91.7893 355.917 89.5516 353.93 87.08C348.582 80.5436 343.871 73.5117 339.86 66.08C337.358 61.5461 335.328 56.7678 333.8 51.82C332.689 48.5651 332.121 45.1494 332.12 41.71C332.048 39.4978 332.808 37.3389 334.25 35.66C334.25 35.66 334.25 35.55 334.25 35.49C334.25 35.43 334.25 35.44 334.25 35.43L333.9 35.35C332.318 35.0409 330.869 34.2554 329.746 33.0989C328.624 31.9424 327.882 30.4703 327.62 28.88C327.547 28.6646 327.446 28.4596 327.32 28.27L327.3 26.89ZM350.37 40.53C348.449 39.2823 346.348 38.3379 344.14 37.73C343.312 37.522 342.464 37.4046 341.61 37.38C340.778 37.3353 339.958 37.5886 339.296 38.0945C338.634 38.6004 338.175 39.3256 338 40.14C337.729 41.299 337.764 42.5083 338.1 43.65C338.772 46.4477 339.779 49.154 341.1 51.71C344.934 59.5196 349.402 67.0014 354.46 74.08C355.664 75.8516 357.041 77.4997 358.57 79C359.301 79.7358 360.158 80.3352 361.1 80.77C361.637 81.0343 362.246 81.1149 362.833 80.9992C363.42 80.8836 363.953 80.5782 364.35 80.13C365.072 79.4624 365.595 78.6073 365.86 77.66C366.18 76.37 366.52 75.08 366.86 73.79C366.882 73.5873 366.882 73.3827 366.86 73.18C366.34 73.36 365.86 73.53 365.39 73.68C363.525 74.3647 361.486 74.4164 359.588 73.8272C357.691 73.238 356.04 72.0407 354.89 70.42C354.404 69.7852 353.962 69.1169 353.57 68.42C352.395 66.2614 351.562 63.9338 351.1 61.52C350.598 58.9365 350.287 56.3193 350.17 53.69C349.867 49.9728 349.867 46.2372 350.17 42.52C350.25 41.85 350.31 41.18 350.38 40.53H350.37ZM375.74 57.33C376.06 57.1 376.35 56.91 376.62 56.7C381.893 52.5625 386.404 47.5372 389.95 41.85C391.003 40.2427 391.85 38.509 392.47 36.69C392.631 36.1222 392.755 35.5442 392.84 34.96C392.92 34.51 392.63 34.3 392.25 34.24C392.016 34.1991 391.776 34.2163 391.55 34.29C390.82 34.515 390.111 34.8027 389.43 35.15C387.77 36.15 386.13 37.15 384.52 38.15C381.04 40.44 377.61 42.81 373.96 44.83C373.96 44.83 373.89 44.92 373.85 44.96L375.74 57.33ZM355.74 38.56C358.446 39.8447 361.322 40.737 364.28 41.21C365.528 41.3854 366.799 41.2968 368.01 40.95C368.01 40.6 368.01 40.28 367.94 39.95C367.54 37.5 367.19 35.04 366.71 32.61C366.246 30.1376 365.392 27.7546 364.18 25.55C363.675 24.6168 363.042 23.7585 362.3 23C360.62 21.35 359 21.63 358.01 23.75C357.478 24.9332 357.076 26.1704 356.81 27.44C356.145 30.8344 355.783 34.2814 355.73 37.74C355.72 38 355.73 38.27 355.73 38.55L355.74 38.56ZM355.8 44C355.8 44.73 355.8 45.38 355.8 46C355.87 47 355.97 47.94 356.09 48.91C356.346 51.2814 356.818 53.6244 357.5 55.91C357.918 57.3538 358.596 58.7093 359.5 59.91C360.035 60.6221 360.731 61.1985 361.53 61.5928C362.329 61.9871 363.209 62.1882 364.1 62.18C365.369 62.1423 366.625 61.92 367.83 61.52C368.032 61.4878 368.213 61.3798 368.338 61.2181C368.462 61.0564 368.52 60.8531 368.5 60.65C368.68 56.48 368.78 52.32 368.56 48.15C368.56 47.86 368.56 47.57 368.49 47.3C368.417 47.2926 368.343 47.2926 368.27 47.3C368.154 47.2882 368.036 47.2882 367.92 47.3C365.897 47.7807 363.777 47.6626 361.82 46.96C360.005 46.3284 358.276 45.4752 356.67 44.42C356.39 44.32 356.11 44.17 355.79 44H355.8Z" fill="white"/>
<path d="M315 113V106.57H316.36V113H315Z" fill="white"/>
<path d="M323.22 113H321.49L318.69 108.13C318.743 108.99 318.77 109.603 318.77 109.97V112.97H317.55V106.54H319.27L322.06 111.36C322.013 110.527 321.99 109.937 321.99 109.59V106.59H323.22V113Z" fill="white"/>
<path d="M325.75 113H324.41V106.57H328.1V107.69H325.76V109.35H327.94V110.46H325.76L325.75 113Z" fill="white"/>
<path d="M334.77 109.77C334.831 110.661 334.548 111.541 333.98 112.23C333.353 112.783 332.546 113.089 331.71 113.089C330.874 113.089 330.067 112.783 329.44 112.23C328.873 111.541 328.59 110.661 328.65 109.77C328.588 108.882 328.871 108.005 329.44 107.32C329.74 107.027 330.097 106.8 330.49 106.653C330.883 106.507 331.302 106.445 331.72 106.47C332.137 106.442 332.555 106.503 332.947 106.649C333.339 106.796 333.694 107.025 333.99 107.32C334.551 108.008 334.83 108.884 334.77 109.77V109.77ZM330.07 109.77C330.031 110.34 330.175 110.907 330.48 111.39C330.623 111.574 330.809 111.721 331.022 111.817C331.234 111.912 331.467 111.955 331.7 111.94C332.787 111.94 333.33 111.217 333.33 109.77C333.33 108.323 332.79 107.6 331.71 107.6C331.476 107.584 331.241 107.626 331.027 107.722C330.812 107.818 330.625 107.965 330.48 108.15C330.178 108.634 330.038 109.201 330.08 109.77H330.07Z" fill="white"/>
<path d="M340.33 107.6C340.099 107.59 339.869 107.638 339.662 107.739C339.454 107.84 339.275 107.992 339.14 108.18C338.833 108.659 338.686 109.222 338.72 109.79C338.72 111.223 339.26 111.94 340.34 111.94C340.902 111.918 341.456 111.803 341.98 111.6V112.74C341.418 112.967 340.816 113.079 340.21 113.07C339.811 113.096 339.411 113.034 339.039 112.887C338.668 112.74 338.333 112.512 338.06 112.22C337.524 111.524 337.261 110.656 337.32 109.78C337.308 109.173 337.435 108.571 337.69 108.02C337.901 107.543 338.249 107.139 338.69 106.86C339.177 106.585 339.73 106.446 340.29 106.46C340.943 106.466 341.585 106.62 342.17 106.91L341.73 108.02C341.492 107.907 341.248 107.807 341 107.72C340.784 107.645 340.558 107.604 340.33 107.6V107.6Z" fill="white"/>
<path d="M348.76 109.77C348.821 110.661 348.538 111.541 347.97 112.23C347.343 112.783 346.536 113.089 345.7 113.089C344.864 113.089 344.057 112.783 343.43 112.23C342.863 111.541 342.58 110.661 342.64 109.77C342.578 108.882 342.861 108.005 343.43 107.32C343.73 107.027 344.087 106.8 344.48 106.653C344.873 106.507 345.292 106.445 345.71 106.47C346.127 106.442 346.545 106.503 346.937 106.649C347.329 106.796 347.684 107.025 347.98 107.32C348.541 108.008 348.82 108.884 348.76 109.77V109.77ZM344.06 109.77C344.021 110.34 344.165 110.907 344.47 111.39C344.613 111.574 344.799 111.721 345.012 111.817C345.224 111.912 345.457 111.955 345.69 111.94C346.777 111.94 347.32 111.217 347.32 109.77C347.32 108.323 346.78 107.6 345.7 107.6C345.466 107.584 345.231 107.626 345.017 107.722C344.802 107.818 344.615 107.965 344.47 108.15C344.164 108.633 344.021 109.2 344.06 109.77V109.77Z" fill="white"/>
<path d="M352.39 113L350.84 108C350.893 109.027 350.92 109.71 350.92 110.05V113.05H349.7V106.62H351.56L353.08 111.54L354.7 106.62H356.56V113H355.29V110C355.29 109.86 355.29 109.69 355.29 109.5C355.29 109.31 355.29 108.81 355.35 108L353.69 113H352.39Z" fill="white"/>
<path d="M360.46 113L358.91 108C358.963 109.027 358.99 109.71 358.99 110.05V113.05H357.77V106.62H359.63L361.15 111.54L362.77 106.62H364.63V113H363.36V110C363.36 109.86 363.36 109.69 363.36 109.5C363.36 109.31 363.36 108.81 363.42 108L361.76 113H360.46Z" fill="white"/>
<path d="M371 106.56V110.72C371.009 111.158 370.898 111.59 370.68 111.97C370.463 112.33 370.142 112.616 369.76 112.79C369.311 112.992 368.822 113.091 368.33 113.08C367.628 113.123 366.937 112.894 366.4 112.44C366.167 112.216 365.985 111.945 365.865 111.645C365.746 111.345 365.693 111.023 365.71 110.7V106.56H367.07V110.5C367.039 110.887 367.145 111.273 367.37 111.59C367.501 111.718 367.658 111.816 367.831 111.876C368.004 111.937 368.188 111.958 368.37 111.94C368.552 111.961 368.737 111.94 368.91 111.879C369.083 111.819 369.24 111.72 369.37 111.59C369.597 111.27 369.703 110.881 369.67 110.49V106.56H371Z" fill="white"/>
<path d="M377.9 113H376.17L373.37 108.13C373.423 108.99 373.45 109.603 373.45 109.97V112.97H372.2V106.54H373.92L376.71 111.36C376.663 110.527 376.64 109.937 376.64 109.59V106.59H377.87L377.9 113Z" fill="white"/>
<path d="M379.1 113V106.57H380.46V113H379.1Z" fill="white"/>
<path d="M384.39 107.6C384.159 107.59 383.929 107.638 383.722 107.739C383.514 107.84 383.334 107.992 383.2 108.18C382.893 108.659 382.746 109.222 382.78 109.79C382.78 111.223 383.32 111.94 384.4 111.94C384.962 111.918 385.516 111.803 386.04 111.6V112.74C385.478 112.967 384.876 113.079 384.27 113.07C383.871 113.096 383.471 113.034 383.099 112.887C382.728 112.74 382.393 112.512 382.12 112.22C381.584 111.524 381.321 110.656 381.38 109.78C381.368 109.173 381.495 108.571 381.75 108.02C381.961 107.543 382.309 107.139 382.75 106.86C383.237 106.585 383.79 106.446 384.35 106.46C385.003 106.466 385.645 106.62 386.23 106.91L385.79 108.02C385.552 107.907 385.308 107.807 385.06 107.72C384.844 107.645 384.618 107.604 384.39 107.6V107.6Z" fill="white"/>
<path d="M390.91 113L390.44 111.47H388.1L387.63 113H386.16L388.43 106.54H390.1L392.38 113H390.91ZM390.12 110.33L389.39 107.98C389.337 107.8 389.297 107.657 389.27 107.55C389.17 107.923 388.893 108.853 388.44 110.34L390.12 110.33Z" fill="white"/>
<path d="M395.25 113H393.89V107.7H392.14V106.56H397V107.7H395.25V113Z" fill="white"/>
<path d="M397.56 113V106.57H398.92V113H397.56Z" fill="white"/>
<path d="M406 109.77C406.061 110.661 405.778 111.541 405.21 112.23C404.583 112.783 403.776 113.089 402.94 113.089C402.104 113.089 401.297 112.783 400.67 112.23C400.103 111.541 399.82 110.661 399.88 109.77C399.818 108.882 400.101 108.005 400.67 107.32C400.97 107.027 401.327 106.8 401.72 106.653C402.113 106.507 402.532 106.445 402.95 106.47C403.367 106.442 403.785 106.503 404.177 106.649C404.569 106.796 404.924 107.025 405.22 107.32C405.781 108.008 406.06 108.884 406 109.77V109.77ZM401.3 109.77C401.261 110.34 401.405 110.907 401.71 111.39C401.853 111.574 402.039 111.721 402.252 111.817C402.464 111.912 402.697 111.955 402.93 111.94C404.017 111.94 404.56 111.217 404.56 109.77C404.56 108.323 404.02 107.6 402.94 107.6C402.706 107.584 402.471 107.626 402.257 107.722C402.042 107.818 401.855 107.965 401.71 108.15C401.394 108.629 401.239 109.197 401.27 109.77H401.3Z" fill="white"/>
<path d="M412.58 113H410.85L408.05 108.13C408.103 108.99 408.13 109.603 408.13 109.97V112.97H406.91V106.54H408.63L411.42 111.36C411.373 110.527 411.35 109.937 411.35 109.59V106.59H412.58V113Z" fill="white"/>
<path d="M320.71 124.92V118.49H322.07V124.92H320.71Z" fill="white"/>
<path d="M329 124.92H327.27L324.47 120.05C324.523 120.91 324.55 121.523 324.55 121.89V124.89H323.33V118.46H325L327.79 123.28C327.743 122.447 327.72 121.857 327.72 121.51V118.51H329V124.92Z" fill="white"/>
<path d="M332.91 119.53C332.679 119.52 332.449 119.568 332.242 119.669C332.034 119.771 331.854 119.922 331.72 120.11C331.413 120.589 331.266 121.152 331.3 121.72C331.3 123.153 331.84 123.87 332.92 123.87C333.482 123.848 334.036 123.733 334.56 123.53V124.67C333.998 124.897 333.396 125.009 332.79 125C332.391 125.026 331.991 124.964 331.619 124.817C331.248 124.67 330.913 124.442 330.64 124.15C330.104 123.454 329.841 122.586 329.9 121.71C329.888 121.103 330.015 120.501 330.27 119.95C330.481 119.473 330.829 119.069 331.27 118.79C331.757 118.515 332.31 118.376 332.87 118.39C333.523 118.396 334.165 118.55 334.75 118.84L334.31 119.95C334.072 119.837 333.828 119.737 333.58 119.65C333.364 119.575 333.138 119.535 332.91 119.53V119.53Z" fill="white"/>
<path d="M340.73 118.49V122.65C340.739 123.088 340.628 123.52 340.41 123.9C340.193 124.26 339.872 124.546 339.49 124.72C339.041 124.922 338.552 125.021 338.06 125.01C337.358 125.053 336.667 124.824 336.13 124.37C335.897 124.146 335.715 123.875 335.595 123.575C335.476 123.275 335.423 122.953 335.44 122.63V118.49H336.8V122.43C336.769 122.817 336.875 123.203 337.1 123.52C337.231 123.648 337.388 123.746 337.561 123.806C337.734 123.867 337.918 123.888 338.1 123.87C338.282 123.891 338.467 123.87 338.64 123.809C338.813 123.749 338.97 123.65 339.1 123.52C339.327 123.2 339.433 122.811 339.4 122.42V118.49H340.73Z" fill="white"/>
<path d="M341.88 118.49H343.88C344.57 118.439 345.26 118.573 345.88 118.88C346.086 119.011 346.252 119.196 346.361 119.414C346.471 119.633 346.518 119.877 346.5 120.12C346.515 120.458 346.421 120.791 346.23 121.07C346.146 121.188 346.038 121.288 345.915 121.363C345.791 121.439 345.653 121.489 345.51 121.51V121.51C345.856 121.566 346.17 121.747 346.39 122.02C346.584 122.316 346.678 122.666 346.66 123.02C346.671 123.283 346.619 123.545 346.507 123.783C346.396 124.022 346.229 124.23 346.02 124.39C345.515 124.743 344.905 124.915 344.29 124.88H341.88V118.49ZM343.24 121.04H344C344.277 121.061 344.555 121.002 344.8 120.87C344.887 120.804 344.955 120.717 344.999 120.617C345.043 120.518 345.06 120.408 345.05 120.3C345.058 120.195 345.037 120.091 344.99 119.997C344.942 119.903 344.869 119.825 344.78 119.77C344.512 119.644 344.216 119.589 343.92 119.61H343.2L343.24 121.04ZM343.24 122.12V123.8H344.13C344.423 123.821 344.716 123.744 344.96 123.58C345.053 123.498 345.126 123.396 345.173 123.282C345.219 123.167 345.239 123.043 345.23 122.92C345.23 122.387 344.85 122.12 344.09 122.12H343.24Z" fill="white"/>
<path d="M351.45 124.92L350.98 123.39H348.63L348.16 124.92H346.7L348.97 118.46H350.64L352.92 124.92H351.45ZM350.66 122.25L349.93 119.9C349.877 119.72 349.837 119.577 349.81 119.47C349.71 119.843 349.433 120.773 348.98 122.26L350.66 122.25Z" fill="white"/>
<path d="M355.79 124.92H354.43V119.62H352.68V118.48H357.54V119.62H355.79V124.92Z" fill="white"/>
<path d="M358.1 124.92V118.49H359.46V124.92H358.1Z" fill="white"/>
<path d="M366.5 121.7C366.561 122.591 366.278 123.471 365.71 124.16C365.083 124.713 364.276 125.019 363.44 125.019C362.604 125.019 361.797 124.713 361.17 124.16C360.603 123.471 360.32 122.591 360.38 121.7C360.318 120.812 360.601 119.935 361.17 119.25C361.47 118.957 361.827 118.73 362.22 118.583C362.613 118.437 363.032 118.375 363.45 118.4C363.867 118.372 364.285 118.433 364.677 118.579C365.069 118.726 365.424 118.955 365.72 119.25C366.281 119.938 366.56 120.814 366.5 121.7V121.7ZM361.8 121.7C361.761 122.27 361.905 122.837 362.21 123.32C362.353 123.504 362.539 123.651 362.752 123.747C362.964 123.842 363.197 123.885 363.43 123.87C364.517 123.87 365.06 123.147 365.06 121.7C365.06 120.253 364.52 119.53 363.44 119.53C363.206 119.514 362.971 119.556 362.757 119.652C362.542 119.748 362.355 119.895 362.21 120.08C361.904 120.562 361.76 121.13 361.8 121.7V121.7Z" fill="white"/>
<path d="M373.11 124.92H371.38L368.58 120.05C368.633 120.91 368.66 121.523 368.66 121.89V124.89H367.44V118.46H369.16L371.95 123.28C371.903 122.447 371.88 121.857 371.88 121.51V118.51H373.11V124.92Z" fill="white"/>
<path d="M379 119.53C378.769 119.52 378.539 119.568 378.332 119.669C378.124 119.771 377.944 119.922 377.81 120.11C377.503 120.589 377.356 121.152 377.39 121.72C377.39 123.153 377.93 123.87 379.01 123.87C379.572 123.848 380.126 123.733 380.65 123.53V124.67C380.088 124.897 379.486 125.009 378.88 125C378.481 125.026 378.081 124.964 377.709 124.817C377.338 124.67 377.003 124.442 376.73 124.15C376.194 123.454 375.931 122.586 375.99 121.71C375.978 121.103 376.105 120.501 376.36 119.95C376.571 119.473 376.919 119.069 377.36 118.79C377.847 118.515 378.4 118.376 378.96 118.39C379.613 118.396 380.255 118.55 380.84 118.84L380.4 120C380.162 119.887 379.918 119.787 379.67 119.7C379.457 119.608 379.231 119.551 379 119.53Z" fill="white"/>
<path d="M385.25 124.92H381.55V118.49H385.25V119.61H382.91V121H385.09V122.12H382.91V123.78H385.25V124.92Z" fill="white"/>
<path d="M391.87 124.92H390.14L387.34 120.05C387.393 120.91 387.42 121.523 387.42 121.89V124.89H386.2V118.46H387.92L390.71 123.28C390.663 122.447 390.64 121.857 390.64 121.51V118.51H391.87V124.92Z" fill="white"/>
<path d="M395.55 124.92H394.19V119.62H392.44V118.48H397.3V119.62H395.55V124.92Z" fill="white"/>
<path d="M399.23 122.45V124.92H397.87V118.49H399.74C400.421 118.439 401.101 118.608 401.68 118.97C402.019 119.274 402.238 119.689 402.297 120.141C402.356 120.592 402.25 121.05 402 121.43C401.776 121.737 401.471 121.976 401.12 122.12C402.087 123.567 402.717 124.5 403.01 124.92H401.5L400 122.45H399.23ZM399.23 121.34H399.67C400.018 121.372 400.368 121.296 400.67 121.12C400.775 121.042 400.859 120.939 400.913 120.82C400.967 120.701 400.99 120.57 400.98 120.44C400.992 120.314 400.97 120.187 400.915 120.072C400.86 119.958 400.776 119.86 400.67 119.79C400.36 119.637 400.014 119.571 399.67 119.6H399.26L399.23 121.34Z" fill="white"/>
<path d="M407.09 124.92H403.39V118.49H407.09V119.61H404.75V121H406.93V122.12H404.75V123.78H407.09V124.92Z" fill="white"/>
<path d="M314.91 102.85V99.31H315.66V102.85H314.91Z" fill="white"/>
<path d="M316.3 102.85V99.31H317.05V102.85H316.3Z" fill="white"/>
<path d="M317.69 102.85V99.31H318.44V102.85H317.69Z" fill="white"/>
<path d="M320.45 102.85H319.7V99.93H318.7V99.31H321.37V99.94H320.37L320.45 102.85Z" fill="white"/>
<path d="M321.41 101.82V101.21H322.71V101.82H321.41Z" fill="white"/>
<path d="M325.23 102.85L325 102H323.71L323.45 102.84H322.64L323.89 99.28H324.81L326.06 102.84L325.23 102.85ZM324.79 101.38L324.39 100.08C324.39 99.98 324.37 99.9 324.33 99.84C324.277 100.047 324.123 100.557 323.87 101.37L324.79 101.38Z" fill="white"/>
<path d="M327 166.7V153.55H328.78V155C329.102 154.459 329.566 154.016 330.121 153.718C330.676 153.42 331.301 153.279 331.93 153.31C334.75 153.31 336.26 155.48 336.26 158.23C336.26 160.98 334.63 163.23 331.87 163.23C331.272 163.258 330.676 163.132 330.14 162.864C329.605 162.597 329.146 162.196 328.81 161.7V166.7H327ZM331.6 154.96C329.91 154.96 328.8 156.37 328.8 158.25C328.8 160.13 329.92 161.58 331.6 161.58C333.28 161.58 334.38 160.19 334.38 158.25C334.38 156.31 333.3 155 331.57 155L331.6 154.96Z" fill="white"/>
<path d="M343.82 155.41C343.555 155.371 343.288 155.351 343.02 155.35C341.47 155.35 340.43 156.17 340.43 158.25V163H338.59V153.58H340.39V155.23C340.628 154.684 341.024 154.221 341.526 153.9C342.028 153.58 342.614 153.416 343.21 153.43C343.415 153.432 343.619 153.452 343.82 153.49V155.41Z" fill="white"/>
<path d="M353.89 160.29C353.612 161.185 353.047 161.964 352.283 162.506C351.518 163.048 350.597 163.323 349.66 163.29C348.334 163.322 347.05 162.826 346.089 161.91C345.129 160.995 344.572 159.736 344.54 158.41C344.508 157.084 345.004 155.799 345.92 154.839C346.835 153.879 348.094 153.322 349.42 153.29C352.32 153.29 353.95 155.29 353.95 158.23C353.964 158.426 353.964 158.624 353.95 158.82H346.86C346.852 159.196 346.92 159.57 347.059 159.919C347.199 160.269 347.407 160.586 347.673 160.853C347.938 161.12 348.254 161.331 348.602 161.473C348.95 161.615 349.324 161.685 349.7 161.68C350.292 161.716 350.878 161.547 351.359 161.201C351.84 160.854 352.187 160.353 352.34 159.78L353.89 160.29ZM352.03 157.29C352.037 156.956 351.974 156.624 351.843 156.317C351.713 156.009 351.52 155.732 351.275 155.505C351.03 155.277 350.741 155.104 350.424 154.996C350.108 154.888 349.773 154.849 349.44 154.88C348.782 154.869 348.146 155.114 347.667 155.564C347.187 156.014 346.901 156.633 346.87 157.29H352.03Z" fill="white"/>
<path d="M357.08 159.94C357.14 160.464 357.405 160.943 357.818 161.273C358.23 161.603 358.755 161.756 359.28 161.7C360.28 161.7 360.89 161.11 360.89 160.45C360.89 159.79 360.46 159.45 359.68 159.24L358.07 158.89C357.423 158.81 356.827 158.496 356.395 158.009C355.962 157.521 355.722 156.892 355.72 156.24C355.774 155.401 356.155 154.616 356.782 154.055C357.408 153.494 358.23 153.202 359.07 153.24C359.872 153.159 360.675 153.371 361.333 153.835C361.991 154.3 362.459 154.987 362.65 155.77L361.02 156.38C360.955 155.91 360.71 155.484 360.337 155.191C359.964 154.898 359.492 154.761 359.02 154.81C358.646 154.768 358.271 154.876 357.976 155.11C357.682 155.345 357.493 155.686 357.45 156.06C357.45 156.63 357.8 157.06 358.53 157.2L360.06 157.53C361.77 157.9 362.67 158.94 362.67 160.33C362.67 161.72 361.55 163.25 359.22 163.25C356.63 163.25 355.54 161.58 355.38 160.51L357.08 159.94Z" fill="white"/>
<path d="M373.27 160.29C372.992 161.185 372.427 161.964 371.663 162.506C370.898 163.048 369.977 163.323 369.04 163.29C367.714 163.322 366.43 162.826 365.469 161.91C364.509 160.995 363.952 159.736 363.92 158.41C363.888 157.084 364.384 155.799 365.3 154.839C366.215 153.879 367.474 153.322 368.8 153.29C371.7 153.29 373.33 155.29 373.33 158.23C373.344 158.426 373.344 158.624 373.33 158.82H366.24C366.232 159.196 366.3 159.57 366.439 159.919C366.579 160.269 366.787 160.586 367.053 160.853C367.318 161.12 367.634 161.331 367.982 161.473C368.33 161.615 368.704 161.685 369.08 161.68C369.672 161.716 370.258 161.547 370.739 161.201C371.22 160.854 371.567 160.353 371.72 159.78L373.27 160.29ZM371.41 157.29C371.417 156.956 371.353 156.624 371.223 156.317C371.093 156.009 370.9 155.732 370.655 155.505C370.41 155.277 370.121 155.104 369.804 154.996C369.488 154.888 369.153 154.849 368.82 154.88C368.162 154.869 367.526 155.114 367.047 155.564C366.567 156.014 366.281 156.633 366.25 157.29H371.41Z" fill="white"/>
<path d="M377.52 163H375.68V153.58H377.48V154.93C377.77 154.421 378.193 154 378.704 153.713C379.215 153.426 379.794 153.283 380.38 153.3C382.63 153.3 383.75 154.93 383.75 157.02V163.02H381.91V157.36C381.91 156.05 381.36 154.99 379.72 154.99C378.27 154.99 377.53 156.15 377.53 157.58L377.52 163Z" fill="white"/>
<path d="M389.16 153.55H391.16V155.22H389.16V160.12C389.16 160.98 389.51 161.41 390.47 161.41C390.712 161.407 390.953 161.38 391.19 161.33V162.9C390.785 163.026 390.364 163.087 389.94 163.08C389.584 163.106 389.226 163.055 388.893 162.929C388.559 162.802 388.256 162.605 388.007 162.349C387.757 162.094 387.566 161.787 387.448 161.451C387.329 161.114 387.286 160.755 387.32 160.4V155.23H385.52V153.56H386C386.195 153.58 386.393 153.557 386.578 153.491C386.763 153.426 386.932 153.319 387.071 153.181C387.209 153.042 387.316 152.873 387.381 152.688C387.447 152.503 387.47 152.305 387.45 152.11V150.58H389.13L389.16 153.55Z" fill="white"/>
<path d="M394.52 159.94C394.58 160.462 394.844 160.94 395.254 161.269C395.664 161.599 396.187 161.753 396.71 161.7C397.71 161.7 398.32 161.11 398.32 160.45C398.32 159.79 397.89 159.45 397.11 159.24L395.5 158.89C394.853 158.81 394.257 158.496 393.825 158.009C393.392 157.521 393.152 156.892 393.15 156.24C393.204 155.401 393.585 154.616 394.212 154.055C394.838 153.494 395.66 153.202 396.5 153.24C397.302 153.159 398.105 153.371 398.763 153.835C399.421 154.3 399.889 154.987 400.08 155.77L398.45 156.38C398.385 155.91 398.14 155.484 397.767 155.191C397.394 154.898 396.922 154.761 396.45 154.81C396.076 154.768 395.701 154.876 395.406 155.11C395.112 155.345 394.923 155.686 394.88 156.06C394.88 156.63 395.23 157.06 395.96 157.2L397.49 157.53C399.2 157.9 400.1 158.94 400.1 160.33C400.1 161.72 398.98 163.25 396.65 163.25C394.06 163.25 392.97 161.58 392.81 160.51L394.52 159.94Z" fill="white"/>
<path d="M350.11 362.74V351.51H351.69V362.74H350.11Z" fill="white"/>
<path d="M360.87 362.74V351.51H362.45V362.74H360.87Z" fill="white"/>
<path d="M371.64 362.74V351.51H373.22V362.74H371.64Z" fill="white"/>
<path d="M386.44 353V362.79H384.89V353H381.14V351.56H390.2V353H386.44Z" fill="white"/>
<path d="M415 359.6H410L408.81 362.74H407.15L411.62 351.51H413.41L417.88 362.74H416.2L415 359.6ZM410.58 358.16H414.45L412.5 353.16L410.58 358.16Z" fill="white"/>
<path d="M425.76 362.74V351.51H427.31V361.28H432.62V362.74H425.76Z" fill="white"/>
<path d="M440.77 362.74V351.51H442.32V361.28H447.63V362.74H440.77Z" fill="white"/>
<path d="M462.65 359.6H457.65L456.46 362.74H454.8L459.27 351.51H461.06L465.53 362.74H463.85L462.65 359.6ZM458.23 358.16H462.1L460.15 353.16L458.23 358.16Z" fill="white"/>
<path d="M480.75 362.74V357.74H475V362.74H473.45V351.51H475V356.31H480.73V351.51H482.28V362.74H480.75Z" fill="white"/>
<path d="M498 359.6H493L491.81 362.74H490.15L494.62 351.51H496.41L500.88 362.74H499.2L498 359.6ZM493.58 358.16H497.45L495.5 353.16L493.58 358.16Z" fill="white"/>
<path d="M512.5 351.51C514.64 351.51 515.89 352.78 515.89 354.51C515.904 355.04 515.748 355.56 515.446 355.995C515.144 356.43 514.711 356.758 514.21 356.93C514.801 357.088 515.321 357.443 515.684 357.935C516.048 358.427 516.233 359.029 516.21 359.64C516.21 361.41 514.8 362.7 512.74 362.7H508.81V351.51H512.5ZM512.33 356.42C512.582 356.451 512.839 356.428 513.081 356.353C513.324 356.277 513.548 356.15 513.737 355.98C513.927 355.81 514.078 355.602 514.18 355.369C514.282 355.136 514.333 354.884 514.33 354.63C514.33 353.57 513.55 352.87 512.27 352.87H510.4V356.42H512.33ZM512.55 361.42C513.8 361.42 514.66 360.72 514.66 359.63C514.669 359.372 514.622 359.115 514.523 358.877C514.423 358.639 514.273 358.425 514.083 358.25C513.893 358.075 513.668 357.944 513.422 357.864C513.176 357.785 512.916 357.76 512.66 357.79H510.44V361.42H512.55Z" fill="white"/>
<path d="M530.94 359.6H525.94L524.75 362.74H523.09L527.56 351.51H529.35L533.82 362.74H532.14L530.94 359.6ZM526.52 358.16H530.39L528.44 353.16L526.52 358.16Z" fill="white"/>
<path d="M541.76 362.74V351.51H545.69C548.54 351.51 551.03 353.46 551.03 357.15C551.085 357.879 550.986 358.612 550.739 359.301C550.492 359.99 550.102 360.618 549.595 361.146C549.088 361.673 548.476 362.088 547.798 362.363C547.119 362.637 546.391 362.766 545.66 362.74H541.76ZM545.61 361.36C547.68 361.36 549.43 359.97 549.43 357.15C549.43 354.33 547.72 352.89 545.64 352.89H543.31V361.36H545.61Z" fill="white"/>
</g>
<defs>
<clipPath id="clip0">
<rect width="692.36" height="362.74" fill="white"/>
</clipPath>
</defs>
</svg>
